<?xml version="1.0" encoding="utf-8"?>
<svg version="1.1" id="Layer_1" xmlns="http://www.w3.org/2000/svg" xmlns:xlink="http://www.w3.org/1999/xlink" x="0px" y="0px"
	 viewBox="0 0 284 59" style="enable-background:new 0 0 284 59;" xml:space="preserve">
<style type="text/css">
	.st0{enable-background:new    ;}
	.st1{fill:#FFFFFF;}
	.st2{fill:none;stroke:#FFFFFF;stroke-width:0.25;}
	.st3{fill:#F2F2F2;}
	.st4{fill:#00E0CF;}
</style>
<title>formerlySaftLaunch@x3</title>
<desc>Created with Sketch.</desc>
<g class="st0">
	<path class="st1" d="M120.9,47.2h1.7v-1.1c0-0.9,0.2-1.6,0.6-2.1c0.4-0.5,1.1-0.7,2-0.7c0.5,0,0.9,0.1,1.4,0.2v0.8
		c-0.4-0.1-0.9-0.2-1.3-0.2c-0.6,0-1.1,0.2-1.4,0.5c-0.3,0.3-0.4,0.9-0.4,1.6v1h2.7v0.7h-2.7V56h-0.9v-8.1h-1.7V47.2z"/>
	<path class="st1" d="M129.1,55.7c-0.6-0.3-1-0.8-1.2-1.5c-0.3-0.7-0.4-1.6-0.4-2.7c0-1.6,0.3-2.8,0.9-3.5c0.6-0.7,1.5-1.1,2.9-1.1
		c0.9,0,1.6,0.2,2.1,0.5c0.5,0.3,0.9,0.8,1.2,1.5c0.3,0.7,0.4,1.6,0.4,2.7c0,1.1-0.1,2-0.4,2.7c-0.2,0.7-0.6,1.2-1.2,1.5
		c-0.5,0.3-1.2,0.5-2.1,0.5S129.6,56,129.1,55.7z M132.8,55c0.4-0.3,0.7-0.6,0.9-1.2c0.2-0.6,0.3-1.3,0.3-2.2c0-0.9-0.1-1.7-0.3-2.2
		c-0.2-0.6-0.5-0.9-0.9-1.2c-0.4-0.3-0.9-0.4-1.6-0.4c-0.7,0-1.2,0.1-1.6,0.4c-0.4,0.3-0.7,0.6-0.9,1.2c-0.2,0.6-0.3,1.3-0.3,2.2
		c0,0.9,0.1,1.7,0.3,2.2c0.2,0.6,0.5,0.9,0.9,1.2c0.4,0.3,0.9,0.4,1.6,0.4C131.9,55.4,132.4,55.3,132.8,55z"/>
	<path class="st1" d="M138.9,49.3L138.9,49.3c0.3-0.7,0.6-1.3,1.1-1.7c0.5-0.4,1.1-0.6,1.8-0.6c0.4,0,0.7,0,1,0.1l-0.1,0.9
		c-0.3-0.1-0.6-0.1-1-0.1c-0.5,0-1,0.2-1.4,0.4c-0.4,0.3-0.8,0.7-1,1.2c-0.2,0.5-0.4,1.2-0.4,1.9V56h-0.9v-8.8h0.8L138.9,49.3z"/>
	<path class="st1" d="M146,48.2L146,48.2c0.3-0.4,0.6-0.7,1-0.9c0.4-0.2,0.9-0.3,1.4-0.3c0.6,0,1.1,0.1,1.5,0.4
		c0.4,0.3,0.7,0.6,0.9,1.1h0c0.2-0.5,0.5-0.9,0.9-1.1c0.5-0.3,1-0.4,1.6-0.4c0.9,0,1.5,0.3,2,0.8c0.5,0.5,0.8,1.2,0.8,2.2v6h-0.9v-6
		c0-0.7-0.2-1.2-0.6-1.6s-0.9-0.5-1.6-0.5c-0.6,0-1,0.2-1.4,0.5c-0.4,0.3-0.6,0.8-0.6,1.4V56h-0.9v-6.2c0-0.6-0.2-1.1-0.5-1.4
		c-0.4-0.3-0.9-0.5-1.5-0.5c-0.4,0-0.8,0.1-1.2,0.3c-0.4,0.2-0.7,0.5-0.9,0.9V56h-0.9v-8.8h0.7L146,48.2z"/>
	<path class="st1" d="M160.3,48.1c0.7-0.7,1.6-1.1,2.7-1.1c2.2,0,3.3,1.3,3.3,4c0,0.3,0,0.5,0,0.6h-6c0,1.3,0.3,2.2,0.7,2.8
		c0.5,0.6,1.2,0.9,2.3,0.9c0.9,0,1.8-0.2,2.6-0.6l0.1,0.8c-0.9,0.4-1.8,0.6-2.8,0.6c-1.4,0-2.4-0.4-3-1.2c-0.6-0.8-0.9-2-0.9-3.6
		C159.4,49.9,159.7,48.9,160.3,48.1z M160.3,50.9h5.1c0-1.1-0.2-1.9-0.6-2.4c-0.4-0.5-1-0.7-1.8-0.7
		C161.3,47.8,160.4,48.8,160.3,50.9z"/>
	<path class="st1" d="M170.3,49.3L170.3,49.3c0.3-0.7,0.6-1.3,1.1-1.7c0.5-0.4,1.1-0.6,1.8-0.6c0.4,0,0.7,0,1,0.1l-0.1,0.9
		c-0.3-0.1-0.6-0.1-1-0.1c-0.5,0-1,0.2-1.4,0.4c-0.4,0.3-0.8,0.7-1,1.2s-0.4,1.2-0.4,1.9V56h-0.9v-8.8h0.8L170.3,49.3z"/>
	<path class="st1" d="M176.6,43.4l0.9-0.1v10.9c0,0.4,0.1,0.7,0.2,0.8c0.1,0.1,0.3,0.2,0.7,0.2c0.2,0,0.6,0,1-0.1V56
		c-0.4,0.1-0.8,0.1-1.3,0.1c-0.6,0-1-0.1-1.2-0.4s-0.4-0.7-0.4-1.3V43.4z"/>
	<path class="st1" d="M184.1,56l-3.7-8.8h1.1l2.6,6.7l0.4,1.1h0l0.4-1.2l2.6-6.7h1l-3.8,9.5c-0.3,0.8-0.7,1.5-1.2,1.9
		c-0.4,0.4-1,0.6-1.8,0.6c-0.5,0-0.9-0.1-1.3-0.2V58c0.4,0.2,0.8,0.3,1.3,0.3c0.5,0,0.9-0.1,1.2-0.4c0.3-0.3,0.6-0.7,0.8-1.3
		L184.1,56z"/>
	<path class="st1" d="M194.9,55.3l0.2-0.9c0.9,0.6,1.9,0.9,3,0.9c0.9,0,1.5-0.2,2-0.6c0.5-0.4,0.7-1,0.7-1.7c0-0.5-0.1-0.8-0.4-1.1
		c-0.2-0.3-0.5-0.5-0.9-0.7c-0.3-0.2-0.8-0.4-1.4-0.6c-0.7-0.2-1.2-0.5-1.6-0.7c-0.4-0.2-0.8-0.5-1-0.9c-0.3-0.4-0.4-0.9-0.4-1.5
		c0-0.9,0.3-1.6,0.9-2.2c0.6-0.5,1.5-0.8,2.6-0.8c1.1,0,2.1,0.2,2.9,0.6l-0.2,0.9c-0.9-0.4-1.8-0.6-2.7-0.6s-1.5,0.2-1.9,0.6
		s-0.6,0.9-0.6,1.5c0,0.4,0.1,0.8,0.3,1c0.2,0.3,0.5,0.5,0.9,0.6c0.3,0.2,0.8,0.3,1.4,0.5c0.7,0.2,1.2,0.5,1.7,0.7
		c0.4,0.2,0.8,0.5,1.1,0.9c0.3,0.4,0.5,0.9,0.5,1.6c0,1-0.3,1.8-0.9,2.4s-1.5,0.9-2.7,0.9C196.9,56.2,195.8,55.9,194.9,55.3z"/>
	<path class="st1" d="M204.3,53.4c0-0.9,0.3-1.5,0.8-2c0.5-0.4,1.4-0.7,2.5-0.7c0.4,0,0.9,0,1.3,0.1c0.4,0.1,0.8,0.2,1.1,0.3V50
		c0-0.8-0.2-1.4-0.5-1.7c-0.4-0.3-1-0.5-1.8-0.5c-0.9,0-1.8,0.2-2.7,0.7l-0.1-0.8c0.9-0.4,1.9-0.6,2.9-0.6c1.1,0,2,0.2,2.4,0.7
		c0.5,0.5,0.7,1.3,0.7,2.4V56h-0.7l-0.1-1.3l0,0c-0.2,0.4-0.6,0.8-1.1,1c-0.5,0.3-1.1,0.4-1.8,0.4C205.2,56.1,204.3,55.2,204.3,53.4
		z M205.8,51.9c-0.4,0.3-0.6,0.8-0.6,1.4c0,0.7,0.2,1.2,0.6,1.5c0.4,0.3,0.9,0.5,1.6,0.5c0.5,0,0.9-0.1,1.3-0.2
		c0.4-0.2,0.7-0.4,0.9-0.7c0.2-0.3,0.3-0.5,0.3-0.8v-1.8c-0.1-0.1-0.4-0.2-0.8-0.3c-0.4-0.1-0.9-0.1-1.4-0.1
		C206.9,51.4,206.2,51.6,205.8,51.9z"/>
	<path class="st1" d="M213.1,47.2h1.7v-1.1c0-0.9,0.2-1.6,0.6-2.1c0.4-0.5,1.1-0.7,2-0.7c0.5,0,0.9,0.1,1.3,0.2v0.8
		c-0.4-0.1-0.9-0.2-1.3-0.2c-0.6,0-1.1,0.2-1.4,0.5c-0.3,0.3-0.4,0.9-0.4,1.6v1h2.7v0.7h-2.7V56h-0.9v-8.1h-1.7V47.2z"/>
	<path class="st1" d="M221.3,47.9h-1.6v-0.7h1.6l0.2-2.8h0.8v2.8h2.8v0.7h-2.8v5.8c0,0.6,0.1,1.1,0.3,1.3c0.2,0.3,0.6,0.4,1.1,0.4
		c0.5,0,1-0.1,1.4-0.3v0.8c-0.5,0.2-1,0.3-1.6,0.3c-0.8,0-1.3-0.2-1.7-0.6s-0.5-1-0.5-1.8V47.9z"/>
	<path class="st1" d="M227.9,44.8h1v10.3h5.5l0,0.9h-6.5V44.8z"/>
	<path class="st1" d="M236.5,53.4c0-0.9,0.3-1.5,0.8-2c0.5-0.4,1.4-0.7,2.5-0.7c0.4,0,0.9,0,1.3,0.1c0.4,0.1,0.8,0.2,1.1,0.3V50
		c0-0.8-0.2-1.4-0.5-1.7c-0.4-0.3-1-0.5-1.8-0.5c-0.9,0-1.8,0.2-2.7,0.7l-0.1-0.8c0.9-0.4,1.9-0.6,2.9-0.6c1.1,0,2,0.2,2.4,0.7
		c0.5,0.5,0.7,1.3,0.7,2.4V56h-0.7l-0.1-1.3l0,0c-0.2,0.4-0.6,0.8-1.1,1c-0.5,0.3-1.1,0.4-1.8,0.4C237.5,56.1,236.5,55.2,236.5,53.4
		z M238,51.9c-0.4,0.3-0.6,0.8-0.6,1.4c0,0.7,0.2,1.2,0.6,1.5c0.4,0.3,0.9,0.5,1.6,0.5c0.5,0,0.9-0.1,1.3-0.2
		c0.4-0.2,0.7-0.4,0.9-0.7c0.2-0.3,0.3-0.5,0.3-0.8v-1.8c-0.1-0.1-0.4-0.2-0.8-0.3c-0.4-0.1-0.9-0.1-1.4-0.1
		C239.1,51.4,238.4,51.6,238,51.9z"/>
	<path class="st1" d="M252.5,54.8L252.5,54.8c-0.7,0.9-1.6,1.3-2.8,1.3c-2,0-2.9-1-2.9-3v-6h0.9v6c0,0.8,0.2,1.3,0.5,1.7
		c0.4,0.4,0.9,0.5,1.7,0.5c0.6,0,1-0.1,1.5-0.4c0.4-0.3,0.8-0.6,1-1v-6.8h0.9V56h-0.7L252.5,54.8z"/>
	<path class="st1" d="M257.8,48.3L257.8,48.3c0.7-0.9,1.6-1.3,2.8-1.3c1,0,1.7,0.2,2.2,0.7c0.5,0.5,0.8,1.2,0.8,2.2V56h-0.9v-6
		c0-0.8-0.2-1.3-0.6-1.7c-0.4-0.4-0.9-0.5-1.7-0.5c-0.5,0-1,0.1-1.5,0.4c-0.4,0.2-0.8,0.5-1,0.9V56H257v-8.8h0.7L257.8,48.3z"/>
	<path class="st1" d="M268.4,48.7c-0.4,0.6-0.7,1.5-0.7,2.8c0,1.4,0.2,2.4,0.7,3c0.5,0.6,1.2,0.9,2.1,0.9c0.4,0,0.7-0.1,1.1-0.2
		c0.3-0.1,0.7-0.3,0.9-0.5l0.1,0.8c-0.3,0.2-0.6,0.4-1,0.5c-0.4,0.1-0.8,0.2-1.3,0.2c-1.2,0-2.1-0.4-2.7-1.1c-0.6-0.8-0.9-2-0.9-3.6
		c0-1.5,0.3-2.6,0.9-3.4c0.6-0.7,1.5-1.1,2.8-1.1c0.4,0,0.8,0,1.2,0.1c0.4,0.1,0.7,0.2,1,0.3l-0.1,0.8c-0.6-0.3-1.3-0.5-2-0.5
		C269.6,47.9,268.8,48.1,268.4,48.7z"/>
	<path class="st1" d="M277.5,48.2c-0.4,0.2-0.8,0.5-1,0.9V56h-0.9V43.4l0.9-0.1v3.6l0,1.2l0,0c0.3-0.4,0.7-0.6,1.1-0.9
		c0.5-0.2,1-0.3,1.5-0.3c1,0,1.7,0.3,2.2,0.8c0.5,0.5,0.8,1.3,0.8,2.2v6h-0.9v-6c0-0.7-0.2-1.2-0.6-1.6c-0.4-0.4-1-0.6-1.7-0.6
		C278.4,47.9,277.9,48,277.5,48.2z"/>
</g>
<g id="logo-RenGenlabs">
	<path id="Fill-1" class="st1" d="M45.1,23.2c0.6,0,1.3,0,1.9-0.1c0.6-0.1,1.2-0.3,1.7-0.6c0.5-0.3,0.9-0.7,1.3-1.2
		c0.3-0.5,0.5-1.1,0.5-1.9c0-0.7-0.2-1.3-0.5-1.7c-0.3-0.5-0.7-0.8-1.2-1.1c-0.5-0.3-1-0.5-1.6-0.6c-0.6-0.1-1.2-0.1-1.8-0.1h-4.1
		v7.3H45.1z M37,12h8.8c1.2,0,2.3,0.1,3.5,0.4c1.1,0.3,2.1,0.7,3,1.3c0.9,0.6,1.6,1.4,2.1,2.3c0.5,1,0.8,2.1,0.8,3.5
		c0,1.9-0.5,3.4-1.5,4.6c-1,1.2-2.4,2-4.2,2.4L56,38h-5.4l-5.8-11h-3.3v11H37V12z"/>
	<path id="Fill-3" class="st1" d="M72.6,26.7c0-0.6-0.1-1.1-0.2-1.6c-0.2-0.5-0.4-1-0.8-1.4c-0.3-0.4-0.8-0.7-1.3-1
		c-0.5-0.2-1.2-0.4-1.9-0.4c-1.3,0-2.5,0.4-3.4,1.2c-0.9,0.8-1.4,1.9-1.5,3.1H72.6z M77,28.7v0.6c0,0.2,0,0.4,0,0.6H63.4
		c0,0.6,0.2,1.2,0.5,1.8c0.3,0.5,0.7,1,1.1,1.4c0.5,0.4,1,0.7,1.6,0.9c0.6,0.2,1.2,0.3,1.9,0.3c1.1,0,2-0.2,2.8-0.6
		c0.8-0.4,1.4-1,1.9-1.7l3,2.4c-1.8,2.4-4.3,3.6-7.6,3.6c-1.4,0-2.7-0.2-3.8-0.7c-1.2-0.4-2.2-1.1-3-1.9c-0.9-0.8-1.5-1.8-2-2.9
		c-0.5-1.2-0.7-2.5-0.7-3.9c0-1.4,0.2-2.8,0.7-3.9c0.5-1.2,1.1-2.2,2-3c0.8-0.8,1.8-1.5,3-1.9c1.1-0.5,2.4-0.7,3.7-0.7
		c1.2,0,2.4,0.2,3.4,0.6c1,0.4,2,1,2.7,1.8c0.8,0.8,1.4,1.8,1.8,3C76.8,25.7,77,27.1,77,28.7z"/>
	<path id="Stroke-5" class="st2" d="M72.6,26.7c0-0.6-0.1-1.1-0.2-1.6c-0.2-0.5-0.4-1-0.8-1.4c-0.3-0.4-0.8-0.7-1.3-1
		c-0.5-0.2-1.2-0.4-1.9-0.4c-1.3,0-2.5,0.4-3.4,1.2c-0.9,0.8-1.4,1.9-1.5,3.1H72.6z M77,28.7v0.6c0,0.2,0,0.4,0,0.6H63.4
		c0,0.6,0.2,1.2,0.5,1.8c0.3,0.5,0.7,1,1.1,1.4c0.5,0.4,1,0.7,1.6,0.9c0.6,0.2,1.2,0.3,1.9,0.3c1.1,0,2-0.2,2.8-0.6
		c0.8-0.4,1.4-1,1.9-1.7l3,2.4c-1.8,2.4-4.3,3.6-7.6,3.6c-1.4,0-2.7-0.2-3.8-0.7c-1.2-0.4-2.2-1.1-3-1.9c-0.9-0.8-1.5-1.8-2-2.9
		c-0.5-1.2-0.7-2.5-0.7-3.9c0-1.4,0.2-2.8,0.7-3.9c0.5-1.2,1.1-2.2,2-3c0.8-0.8,1.8-1.5,3-1.9c1.1-0.5,2.4-0.7,3.7-0.7
		c1.2,0,2.4,0.2,3.4,0.6c1,0.4,2,1,2.7,1.8c0.8,0.8,1.4,1.8,1.8,3C76.8,25.7,77,27.1,77,28.7z"/>
	<path id="Fill-7" class="st1" d="M81,19.5h4.1v3h0.1c0.4-0.9,1.1-1.7,2-2.4c1-0.7,2.1-1.1,3.4-1.1c1.1,0,2.1,0.2,2.9,0.6
		c0.8,0.4,1.5,1,2,1.7c0.5,0.7,0.9,1.5,1.1,2.4c0.2,0.9,0.4,1.8,0.4,2.8V38h-4.3V27.8c0-0.5,0-1.1-0.1-1.7c-0.1-0.6-0.2-1.1-0.5-1.6
		c-0.2-0.5-0.6-0.9-1-1.2c-0.4-0.3-1-0.5-1.7-0.5c-0.7,0-1.3,0.1-1.8,0.4c-0.5,0.3-0.9,0.7-1.2,1.1c-0.3,0.5-0.6,1-0.7,1.6
		c-0.2,0.6-0.3,1.2-0.3,1.8V38H81V19.5z"/>
	<path id="Stroke-9" class="st2" d="M81,19.5h4.1v3h0.1c0.4-0.9,1.1-1.7,2-2.4c1-0.7,2.1-1.1,3.4-1.1c1.1,0,2.1,0.2,2.9,0.6
		c0.8,0.4,1.5,1,2,1.7c0.5,0.7,0.9,1.5,1.1,2.4c0.2,0.9,0.4,1.8,0.4,2.8V38h-4.3V27.8c0-0.5,0-1.1-0.1-1.7c-0.1-0.6-0.2-1.1-0.5-1.6
		c-0.2-0.5-0.6-0.9-1-1.2c-0.4-0.3-1-0.5-1.7-0.5c-0.7,0-1.3,0.1-1.8,0.4c-0.5,0.3-0.9,0.7-1.2,1.1c-0.3,0.5-0.6,1-0.7,1.6
		c-0.2,0.6-0.3,1.2-0.3,1.8V38H81V19.5z"/>
	<path id="Fill-11" class="st1" d="M127,36c-1.3,0.6-2.8,1.1-4.3,1.5c-1.6,0.4-3.4,0.5-5.4,0.5c-2.1,0-4-0.3-5.8-1
		c-1.7-0.7-3.2-1.6-4.5-2.8c-1.2-1.2-2.2-2.6-2.9-4.3c-0.7-1.7-1-3.5-1-5.5c0-2.1,0.4-3.9,1.1-5.6c0.7-1.7,1.7-3.1,3-4.2
		c1.3-1.2,2.7-2.1,4.5-2.7c1.7-0.6,3.6-0.9,5.6-0.9c2.1,0,4,0.3,5.7,0.9c1.7,0.6,3.1,1.4,4.2,2.3l-3.2,3.4c-0.7-0.7-1.6-1.3-2.8-1.9
		c-1.2-0.5-2.5-0.8-3.9-0.8c-1.4,0-2.6,0.2-3.7,0.7c-1.1,0.5-2.1,1.1-2.8,2c-0.8,0.8-1.4,1.8-1.8,3c-0.4,1.1-0.6,2.4-0.6,3.7
		c0,1.4,0.2,2.6,0.6,3.8c0.4,1.2,1,2.1,1.8,3c0.8,0.8,1.8,1.5,2.9,2c1.1,0.5,2.4,0.7,3.9,0.7c2,0,3.7-0.3,5.2-0.9v-6.5h-5.5v-3.8
		h9.9V36z"/>
	<path id="Fill-13" class="st1" d="M145.6,26.7c0-0.6-0.1-1.1-0.2-1.6c-0.2-0.5-0.4-1-0.8-1.4c-0.3-0.4-0.8-0.7-1.3-1
		c-0.5-0.2-1.2-0.4-1.9-0.4c-1.3,0-2.5,0.4-3.4,1.2c-0.9,0.8-1.4,1.9-1.5,3.1H145.6z M150,28.7v0.6c0,0.2,0,0.4,0,0.6h-13.5
		c0,0.6,0.2,1.2,0.5,1.8c0.3,0.5,0.7,1,1.1,1.4c0.5,0.4,1,0.7,1.6,0.9s1.2,0.3,1.9,0.3c1.1,0,2-0.2,2.8-0.6c0.8-0.4,1.4-1,1.9-1.7
		l3,2.4c-1.8,2.4-4.3,3.6-7.6,3.6c-1.4,0-2.7-0.2-3.8-0.7c-1.2-0.4-2.2-1.1-3-1.9c-0.9-0.8-1.5-1.8-2-2.9c-0.5-1.2-0.7-2.5-0.7-3.9
		c0-1.4,0.2-2.8,0.7-3.9c0.5-1.2,1.1-2.2,2-3c0.8-0.8,1.8-1.5,3-1.9c1.1-0.5,2.4-0.7,3.7-0.7c1.2,0,2.4,0.2,3.4,0.6
		c1,0.4,2,1,2.7,1.8c0.8,0.8,1.4,1.8,1.8,3C149.8,25.7,150,27.1,150,28.7z"/>
	<path id="Fill-15" class="st1" d="M155,19.5h4.1v3h0.1c0.4-0.9,1.1-1.7,2-2.4c1-0.7,2.1-1.1,3.4-1.1c1.1,0,2.1,0.2,2.9,0.6
		s1.5,1,2,1.7c0.5,0.7,0.9,1.5,1.1,2.4c0.2,0.9,0.4,1.8,0.4,2.8V38h-4.3V27.8c0-0.5,0-1.1-0.1-1.7c-0.1-0.6-0.2-1.1-0.5-1.6
		c-0.2-0.5-0.6-0.9-1-1.2c-0.4-0.3-1-0.5-1.7-0.5c-0.7,0-1.3,0.1-1.8,0.4c-0.5,0.3-0.9,0.7-1.2,1.1c-0.3,0.5-0.6,1-0.7,1.6
		c-0.2,0.6-0.3,1.2-0.3,1.8V38H155V19.5z"/>
	<polygon id="Fill-17" class="st3" points="182,12 186.7,12 186.7,33.9 198,33.9 198,38 182,38 	"/>
	<polygon id="Stroke-19" class="st2" points="182,12 186.7,12 186.7,33.9 198,33.9 198,38 182,38 	"/>
	<path id="Fill-21" class="st3" d="M211.9,29.3h-1c-0.7,0-1.4,0-2.2,0.1c-0.8,0.1-1.5,0.2-2.1,0.4c-0.6,0.2-1.2,0.5-1.6,0.9
		c-0.4,0.4-0.6,0.9-0.6,1.6c0,0.4,0.1,0.8,0.3,1.1c0.2,0.3,0.4,0.5,0.7,0.7c0.3,0.2,0.6,0.3,1,0.4c0.4,0.1,0.7,0.1,1.1,0.1
		c1.5,0,2.6-0.4,3.4-1.2c0.8-0.8,1.2-2,1.2-3.4V29.3z M212,35.3h-0.1c-0.4,0.8-1.1,1.5-2.1,2c-1,0.5-2.1,0.8-3.3,0.8
		c-0.7,0-1.4-0.1-2.2-0.3c-0.8-0.2-1.5-0.5-2.1-0.9c-0.6-0.4-1.2-1-1.6-1.7c-0.4-0.7-0.6-1.6-0.6-2.6c0-1.4,0.4-2.4,1.1-3.2
		c0.7-0.8,1.7-1.4,2.8-1.8s2.4-0.7,3.8-0.8c1.4-0.1,2.8-0.2,4.1-0.2v-0.5c0-1.1-0.4-2-1.2-2.5c-0.8-0.5-1.7-0.8-2.8-0.8
		c-0.9,0-1.8,0.2-2.6,0.6c-0.8,0.4-1.5,0.9-2.1,1.5l-2.2-2.7c1-1,2.1-1.7,3.4-2.1c1.3-0.5,2.6-0.7,3.9-0.7c1.5,0,2.8,0.2,3.8,0.7
		c1,0.5,1.8,1,2.4,1.8c0.6,0.7,1,1.5,1.2,2.4c0.2,0.9,0.3,1.8,0.3,2.7v11h-4V35.3z"/>
	<path id="Stroke-23" class="st2" d="M211.9,29.3h-1c-0.7,0-1.4,0-2.2,0.1c-0.8,0.1-1.5,0.2-2.1,0.4c-0.6,0.2-1.2,0.5-1.6,0.9
		c-0.4,0.4-0.6,0.9-0.6,1.6c0,0.4,0.1,0.8,0.3,1.1c0.2,0.3,0.4,0.5,0.7,0.7c0.3,0.2,0.6,0.3,1,0.4c0.4,0.1,0.7,0.1,1.1,0.1
		c1.5,0,2.6-0.4,3.4-1.2c0.8-0.8,1.2-2,1.2-3.4V29.3z M212,35.3h-0.1c-0.4,0.8-1.1,1.5-2.1,2c-1,0.5-2.1,0.8-3.3,0.8
		c-0.7,0-1.4-0.1-2.2-0.3c-0.8-0.2-1.5-0.5-2.1-0.9c-0.6-0.4-1.2-1-1.6-1.7c-0.4-0.7-0.6-1.6-0.6-2.6c0-1.4,0.4-2.4,1.1-3.2
		c0.7-0.8,1.7-1.4,2.8-1.8s2.4-0.7,3.8-0.8c1.4-0.1,2.8-0.2,4.1-0.2v-0.5c0-1.1-0.4-2-1.2-2.5c-0.8-0.5-1.7-0.8-2.8-0.8
		c-0.9,0-1.8,0.2-2.6,0.6c-0.8,0.4-1.5,0.9-2.1,1.5l-2.2-2.7c1-1,2.1-1.7,3.4-2.1c1.3-0.5,2.6-0.7,3.9-0.7c1.5,0,2.8,0.2,3.8,0.7
		c1,0.5,1.8,1,2.4,1.8c0.6,0.7,1,1.5,1.2,2.4c0.2,0.9,0.3,1.8,0.3,2.7v11h-4V35.3z"/>
	<path id="Fill-25" class="st3" d="M236.5,28.7c0-0.7-0.1-1.4-0.3-2c-0.2-0.7-0.5-1.3-0.9-1.8c-0.4-0.5-0.9-1-1.6-1.3
		c-0.6-0.3-1.4-0.5-2.2-0.5c-0.8,0-1.5,0.2-2.2,0.5c-0.6,0.3-1.2,0.8-1.6,1.3c-0.5,0.5-0.8,1.1-1,1.8c-0.2,0.7-0.3,1.4-0.3,2
		c0,0.7,0.1,1.4,0.3,2c0.2,0.7,0.6,1.3,1,1.8c0.5,0.5,1,1,1.6,1.3s1.4,0.5,2.2,0.5c0.9,0,1.6-0.2,2.2-0.5c0.6-0.3,1.2-0.8,1.6-1.3
		c0.4-0.5,0.7-1.1,0.9-1.8C236.4,30,236.5,29.4,236.5,28.7z M226.4,10v12.3h0.1c0.2-0.3,0.5-0.6,0.8-0.9c0.3-0.3,0.8-0.6,1.2-0.9
		c0.5-0.3,1-0.5,1.7-0.7c0.6-0.2,1.4-0.3,2.2-0.3c1.2,0,2.4,0.2,3.5,0.7c1.1,0.5,2,1.1,2.7,1.9c0.8,0.8,1.3,1.8,1.8,2.9
		c0.4,1.1,0.6,2.3,0.6,3.6c0,1.3-0.2,2.5-0.6,3.6c-0.4,1.1-1,2.1-1.7,2.9c-0.7,0.8-1.7,1.5-2.7,2c-1.1,0.5-2.3,0.7-3.6,0.7
		c-1.2,0-2.4-0.3-3.5-0.8c-1.1-0.5-1.9-1.3-2.6-2.3h-0.1v2.6H222V10H226.4z"/>
	<path id="Stroke-27" class="st2" d="M236.5,28.7c0-0.7-0.1-1.4-0.3-2c-0.2-0.7-0.5-1.3-0.9-1.8c-0.4-0.5-0.9-1-1.6-1.3
		c-0.6-0.3-1.4-0.5-2.2-0.5c-0.8,0-1.5,0.2-2.2,0.5c-0.6,0.3-1.2,0.8-1.6,1.3c-0.5,0.5-0.8,1.1-1,1.8c-0.2,0.7-0.3,1.4-0.3,2
		c0,0.7,0.1,1.4,0.3,2c0.2,0.7,0.6,1.3,1,1.8c0.5,0.5,1,1,1.6,1.3s1.4,0.5,2.2,0.5c0.9,0,1.6-0.2,2.2-0.5c0.6-0.3,1.2-0.8,1.6-1.3
		c0.4-0.5,0.7-1.1,0.9-1.8C236.4,30,236.5,29.4,236.5,28.7z M226.4,10v12.3h0.1c0.2-0.3,0.5-0.6,0.8-0.9c0.3-0.3,0.8-0.6,1.2-0.9
		c0.5-0.3,1-0.5,1.7-0.7c0.6-0.2,1.4-0.3,2.2-0.3c1.2,0,2.4,0.2,3.5,0.7c1.1,0.5,2,1.1,2.7,1.9c0.8,0.8,1.3,1.8,1.8,2.9
		c0.4,1.1,0.6,2.3,0.6,3.6c0,1.3-0.2,2.5-0.6,3.6c-0.4,1.1-1,2.1-1.7,2.9c-0.7,0.8-1.7,1.5-2.7,2c-1.1,0.5-2.3,0.7-3.6,0.7
		c-1.2,0-2.4-0.3-3.5-0.8c-1.1-0.5-1.9-1.3-2.6-2.3h-0.1v2.6H222V10H226.4z"/>
	<path id="Fill-29" class="st3" d="M256.1,24.3c-0.4-0.5-1-1-1.7-1.4c-0.7-0.4-1.5-0.6-2.3-0.6c-0.7,0-1.4,0.1-2,0.4
		c-0.6,0.3-0.9,0.8-0.9,1.5c0,0.7,0.3,1.2,1,1.5c0.7,0.3,1.6,0.6,2.9,0.9c0.7,0.1,1.4,0.3,2.1,0.6c0.7,0.3,1.3,0.6,1.9,1
		c0.6,0.4,1,0.9,1.4,1.5c0.4,0.6,0.5,1.4,0.5,2.2c0,1.1-0.2,2-0.6,2.8c-0.4,0.8-1,1.4-1.7,1.9c-0.7,0.5-1.5,0.8-2.4,1
		c-0.9,0.2-1.9,0.3-2.8,0.3c-1.4,0-2.8-0.3-4.1-0.8c-1.3-0.5-2.4-1.2-3.3-2.2l3-2.8c0.5,0.6,1.2,1.2,2,1.6c0.8,0.4,1.7,0.6,2.7,0.6
		c0.3,0,0.7,0,1-0.1c0.3-0.1,0.7-0.2,0.9-0.4c0.3-0.2,0.5-0.4,0.7-0.7c0.2-0.3,0.3-0.6,0.3-1c0-0.7-0.3-1.3-1-1.6
		c-0.7-0.3-1.7-0.6-3.1-1c-0.7-0.1-1.3-0.3-2-0.6c-0.6-0.2-1.2-0.5-1.7-0.9c-0.5-0.4-0.9-0.9-1.2-1.4c-0.3-0.6-0.5-1.3-0.5-2.1
		c0-1,0.2-1.9,0.6-2.6c0.4-0.7,1-1.3,1.6-1.8c0.7-0.5,1.4-0.8,2.3-1c0.9-0.2,1.7-0.3,2.6-0.3c1.3,0,2.6,0.2,3.8,0.7
		c1.2,0.4,2.2,1.1,3,2.1L256.1,24.3z"/>
	<path id="Stroke-31" class="st2" d="M256.1,24.3c-0.4-0.5-1-1-1.7-1.4c-0.7-0.4-1.5-0.6-2.3-0.6c-0.7,0-1.4,0.1-2,0.4
		c-0.6,0.3-0.9,0.8-0.9,1.5c0,0.7,0.3,1.2,1,1.5c0.7,0.3,1.6,0.6,2.9,0.9c0.7,0.1,1.4,0.3,2.1,0.6c0.7,0.3,1.3,0.6,1.9,1
		c0.6,0.4,1,0.9,1.4,1.5c0.4,0.6,0.5,1.4,0.5,2.2c0,1.1-0.2,2-0.6,2.8c-0.4,0.8-1,1.4-1.7,1.9c-0.7,0.5-1.5,0.8-2.4,1
		c-0.9,0.2-1.9,0.3-2.8,0.3c-1.4,0-2.8-0.3-4.1-0.8c-1.3-0.5-2.4-1.2-3.3-2.2l3-2.8c0.5,0.6,1.2,1.2,2,1.6c0.8,0.4,1.7,0.6,2.7,0.6
		c0.3,0,0.7,0,1-0.1c0.3-0.1,0.7-0.2,0.9-0.4c0.3-0.2,0.5-0.4,0.7-0.7c0.2-0.3,0.3-0.6,0.3-1c0-0.7-0.3-1.3-1-1.6
		c-0.7-0.3-1.7-0.6-3.1-1c-0.7-0.1-1.3-0.3-2-0.6c-0.6-0.2-1.2-0.5-1.7-0.9c-0.5-0.4-0.9-0.9-1.2-1.4c-0.3-0.6-0.5-1.3-0.5-2.1
		c0-1,0.2-1.9,0.6-2.6c0.4-0.7,1-1.3,1.6-1.8c0.7-0.5,1.4-0.8,2.3-1c0.9-0.2,1.7-0.3,2.6-0.3c1.3,0,2.6,0.2,3.8,0.7
		c1.2,0.4,2.2,1.1,3,2.1L256.1,24.3z"/>
	<path id="Fill-33" class="st4" d="M13.2,4.7c-1.5,3.3-2.8,6-3.8,8.1c-1,2.2-2.3,4.9-3.8,8.1H0L10.1,0h6.8L27,21h-5.6L13.8,4.7H13.2
		z"/>
	<path id="Stroke-35" class="st2" d="M13.2,4.7c-1.5,3.3-2.8,6-3.8,8.1c-1,2.2-2.3,4.9-3.8,8.1H0L10.1,0h6.8L27,21h-5.6L13.8,4.7
		H13.2z"/>
</g>
<g class="st0">
	<path class="st1" d="M120.9,47.2h1.7v-1.1c0-0.9,0.2-1.6,0.6-2.1c0.4-0.5,1.1-0.7,2-0.7c0.5,0,0.9,0.1,1.4,0.2v0.8
		c-0.4-0.1-0.9-0.2-1.3-0.2c-0.6,0-1.1,0.2-1.4,0.5c-0.3,0.3-0.4,0.9-0.4,1.6v1h2.7v0.7h-2.7V56h-0.9v-8.1h-1.7V47.2z"/>
	<path class="st1" d="M129.1,55.7c-0.6-0.3-1-0.8-1.2-1.5c-0.3-0.7-0.4-1.6-0.4-2.7c0-1.6,0.3-2.8,0.9-3.5c0.6-0.7,1.5-1.1,2.9-1.1
		c0.9,0,1.6,0.2,2.1,0.5c0.5,0.3,0.9,0.8,1.2,1.5c0.3,0.7,0.4,1.6,0.4,2.7c0,1.1-0.1,2-0.4,2.7c-0.2,0.7-0.6,1.2-1.2,1.5
		c-0.5,0.3-1.2,0.5-2.1,0.5S129.6,56,129.1,55.7z M132.8,55c0.4-0.3,0.7-0.6,0.9-1.2c0.2-0.6,0.3-1.3,0.3-2.2c0-0.9-0.1-1.7-0.3-2.2
		c-0.2-0.6-0.5-0.9-0.9-1.2c-0.4-0.3-0.9-0.4-1.6-0.4c-0.7,0-1.2,0.1-1.6,0.4c-0.4,0.3-0.7,0.6-0.9,1.2c-0.2,0.6-0.3,1.3-0.3,2.2
		c0,0.9,0.1,1.7,0.3,2.2c0.2,0.6,0.5,0.9,0.9,1.2c0.4,0.3,0.9,0.4,1.6,0.4C131.9,55.4,132.4,55.3,132.8,55z"/>
	<path class="st1" d="M138.9,49.3L138.9,49.3c0.3-0.7,0.6-1.3,1.1-1.7c0.5-0.4,1.1-0.6,1.8-0.6c0.4,0,0.7,0,1,0.1l-0.1,0.9
		c-0.3-0.1-0.6-0.1-1-0.1c-0.5,0-1,0.2-1.4,0.4c-0.4,0.3-0.8,0.7-1,1.2c-0.2,0.5-0.4,1.2-0.4,1.9V56h-0.9v-8.8h0.8L138.9,49.3z"/>
	<path class="st1" d="M146,48.2L146,48.2c0.3-0.4,0.6-0.7,1-0.9c0.4-0.2,0.9-0.3,1.4-0.3c0.6,0,1.1,0.1,1.5,0.4
		c0.4,0.3,0.7,0.6,0.9,1.1h0c0.2-0.5,0.5-0.9,0.9-1.1c0.5-0.3,1-0.4,1.6-0.4c0.9,0,1.5,0.3,2,0.8c0.5,0.5,0.8,1.2,0.8,2.2v6h-0.9v-6
		c0-0.7-0.2-1.2-0.6-1.6s-0.9-0.5-1.6-0.5c-0.6,0-1,0.2-1.4,0.5c-0.4,0.3-0.6,0.8-0.6,1.4V56h-0.9v-6.2c0-0.6-0.2-1.1-0.5-1.4
		c-0.4-0.3-0.9-0.5-1.5-0.5c-0.4,0-0.8,0.1-1.2,0.3c-0.4,0.2-0.7,0.5-0.9,0.9V56h-0.9v-8.8h0.7L146,48.2z"/>
	<path class="st1" d="M160.3,48.1c0.7-0.7,1.6-1.1,2.7-1.1c2.2,0,3.3,1.3,3.3,4c0,0.3,0,0.5,0,0.6h-6c0,1.3,0.3,2.2,0.7,2.8
		c0.5,0.6,1.2,0.9,2.3,0.9c0.9,0,1.8-0.2,2.6-0.6l0.1,0.8c-0.9,0.4-1.8,0.6-2.8,0.6c-1.4,0-2.4-0.4-3-1.2c-0.6-0.8-0.9-2-0.9-3.6
		C159.4,49.9,159.7,48.9,160.3,48.1z M160.3,50.9h5.1c0-1.1-0.2-1.9-0.6-2.4c-0.4-0.5-1-0.7-1.8-0.7
		C161.3,47.8,160.4,48.8,160.3,50.9z"/>
	<path class="st1" d="M170.3,49.3L170.3,49.3c0.3-0.7,0.6-1.3,1.1-1.7c0.5-0.4,1.1-0.6,1.8-0.6c0.4,0,0.7,0,1,0.1l-0.1,0.9
		c-0.3-0.1-0.6-0.1-1-0.1c-0.5,0-1,0.2-1.4,0.4c-0.4,0.3-0.8,0.7-1,1.2s-0.4,1.2-0.4,1.9V56h-0.9v-8.8h0.8L170.3,49.3z"/>
	<path class="st1" d="M176.6,43.4l0.9-0.1v10.9c0,0.4,0.1,0.7,0.2,0.8c0.1,0.1,0.3,0.2,0.7,0.2c0.2,0,0.6,0,1-0.1V56
		c-0.4,0.1-0.8,0.1-1.3,0.1c-0.6,0-1-0.1-1.2-0.4s-0.4-0.7-0.4-1.3V43.4z"/>
	<path class="st1" d="M184.1,56l-3.7-8.8h1.1l2.6,6.7l0.4,1.1h0l0.4-1.2l2.6-6.7h1l-3.8,9.5c-0.3,0.8-0.7,1.5-1.2,1.9
		c-0.4,0.4-1,0.6-1.8,0.6c-0.5,0-0.9-0.1-1.3-0.2V58c0.4,0.2,0.8,0.3,1.3,0.3c0.5,0,0.9-0.1,1.2-0.4c0.3-0.3,0.6-0.7,0.8-1.3
		L184.1,56z"/>
	<path class="st1" d="M194.9,55.3l0.2-0.9c0.9,0.6,1.9,0.9,3,0.9c0.9,0,1.5-0.2,2-0.6c0.5-0.4,0.7-1,0.7-1.7c0-0.5-0.1-0.8-0.4-1.1
		c-0.2-0.3-0.5-0.5-0.9-0.7c-0.3-0.2-0.8-0.4-1.4-0.6c-0.7-0.2-1.2-0.5-1.6-0.7c-0.4-0.2-0.8-0.5-1-0.9c-0.3-0.4-0.4-0.9-0.4-1.5
		c0-0.9,0.3-1.6,0.9-2.2c0.6-0.5,1.5-0.8,2.6-0.8c1.1,0,2.1,0.2,2.9,0.6l-0.2,0.9c-0.9-0.4-1.8-0.6-2.7-0.6s-1.5,0.2-1.9,0.6
		s-0.6,0.9-0.6,1.5c0,0.4,0.1,0.8,0.3,1c0.2,0.3,0.5,0.5,0.9,0.6c0.3,0.2,0.8,0.3,1.4,0.5c0.7,0.2,1.2,0.5,1.7,0.7
		c0.4,0.2,0.8,0.5,1.1,0.9c0.3,0.4,0.5,0.9,0.5,1.6c0,1-0.3,1.8-0.9,2.4s-1.5,0.9-2.7,0.9C196.9,56.2,195.8,55.9,194.9,55.3z"/>
	<path class="st1" d="M204.3,53.4c0-0.9,0.3-1.5,0.8-2c0.5-0.4,1.4-0.7,2.5-0.7c0.4,0,0.9,0,1.3,0.1c0.4,0.1,0.8,0.2,1.1,0.3V50
		c0-0.8-0.2-1.4-0.5-1.7c-0.4-0.3-1-0.5-1.8-0.5c-0.9,0-1.8,0.2-2.7,0.7l-0.1-0.8c0.9-0.4,1.9-0.6,2.9-0.6c1.1,0,2,0.2,2.4,0.7
		c0.5,0.5,0.7,1.3,0.7,2.4V56h-0.7l-0.1-1.3l0,0c-0.2,0.4-0.6,0.8-1.1,1c-0.5,0.3-1.1,0.4-1.8,0.4C205.2,56.1,204.3,55.2,204.3,53.4
		z M205.8,51.9c-0.4,0.3-0.6,0.8-0.6,1.4c0,0.7,0.2,1.2,0.6,1.5c0.4,0.3,0.9,0.5,1.6,0.5c0.5,0,0.9-0.1,1.3-0.2
		c0.4-0.2,0.7-0.4,0.9-0.7c0.2-0.3,0.3-0.5,0.3-0.8v-1.8c-0.1-0.1-0.4-0.2-0.8-0.3c-0.4-0.1-0.9-0.1-1.4-0.1
		C206.9,51.4,206.2,51.6,205.8,51.9z"/>
	<path class="st1" d="M213.1,47.2h1.7v-1.1c0-0.9,0.2-1.6,0.6-2.1c0.4-0.5,1.1-0.7,2-0.7c0.5,0,0.9,0.1,1.3,0.2v0.8
		c-0.4-0.1-0.9-0.2-1.3-0.2c-0.6,0-1.1,0.2-1.4,0.5c-0.3,0.3-0.4,0.9-0.4,1.6v1h2.7v0.7h-2.7V56h-0.9v-8.1h-1.7V47.2z"/>
	<path class="st1" d="M221.3,47.9h-1.6v-0.7h1.6l0.2-2.8h0.8v2.8h2.8v0.7h-2.8v5.8c0,0.6,0.1,1.1,0.3,1.3c0.2,0.3,0.6,0.4,1.1,0.4
		c0.5,0,1-0.1,1.4-0.3v0.8c-0.5,0.2-1,0.3-1.6,0.3c-0.8,0-1.3-0.2-1.7-0.6s-0.5-1-0.5-1.8V47.9z"/>
	<path class="st1" d="M227.9,44.8h1v10.3h5.5l0,0.9h-6.5V44.8z"/>
	<path class="st1" d="M236.5,53.4c0-0.9,0.3-1.5,0.8-2c0.5-0.4,1.4-0.7,2.5-0.7c0.4,0,0.9,0,1.3,0.1c0.4,0.1,0.8,0.2,1.1,0.3V50
		c0-0.8-0.2-1.4-0.5-1.7c-0.4-0.3-1-0.5-1.8-0.5c-0.9,0-1.8,0.2-2.7,0.7l-0.1-0.8c0.9-0.4,1.9-0.6,2.9-0.6c1.1,0,2,0.2,2.4,0.7
		c0.5,0.5,0.7,1.3,0.7,2.4V56h-0.7l-0.1-1.3l0,0c-0.2,0.4-0.6,0.8-1.1,1c-0.5,0.3-1.1,0.4-1.8,0.4C237.5,56.1,236.5,55.2,236.5,53.4
		z M238,51.9c-0.4,0.3-0.6,0.8-0.6,1.4c0,0.7,0.2,1.2,0.6,1.5c0.4,0.3,0.9,0.5,1.6,0.5c0.5,0,0.9-0.1,1.3-0.2
		c0.4-0.2,0.7-0.4,0.9-0.7c0.2-0.3,0.3-0.5,0.3-0.8v-1.8c-0.1-0.1-0.4-0.2-0.8-0.3c-0.4-0.1-0.9-0.1-1.4-0.1
		C239.1,51.4,238.4,51.6,238,51.9z"/>
	<path class="st1" d="M252.5,54.8L252.5,54.8c-0.7,0.9-1.6,1.3-2.8,1.3c-2,0-2.9-1-2.9-3v-6h0.9v6c0,0.8,0.2,1.3,0.5,1.7
		c0.4,0.4,0.9,0.5,1.7,0.5c0.6,0,1-0.1,1.5-0.4c0.4-0.3,0.8-0.6,1-1v-6.8h0.9V56h-0.7L252.5,54.8z"/>
	<path class="st1" d="M257.8,48.3L257.8,48.3c0.7-0.9,1.6-1.3,2.8-1.3c1,0,1.7,0.2,2.2,0.7c0.5,0.5,0.8,1.2,0.8,2.2V56h-0.9v-6
		c0-0.8-0.2-1.3-0.6-1.7c-0.4-0.4-0.9-0.5-1.7-0.5c-0.5,0-1,0.1-1.5,0.4c-0.4,0.2-0.8,0.5-1,0.9V56H257v-8.8h0.7L257.8,48.3z"/>
	<path class="st1" d="M268.4,48.7c-0.4,0.6-0.7,1.5-0.7,2.8c0,1.4,0.2,2.4,0.7,3c0.5,0.6,1.2,0.9,2.1,0.9c0.4,0,0.7-0.1,1.1-0.2
		c0.3-0.1,0.7-0.3,0.9-0.5l0.1,0.8c-0.3,0.2-0.6,0.4-1,0.5c-0.4,0.1-0.8,0.2-1.3,0.2c-1.2,0-2.1-0.4-2.7-1.1c-0.6-0.8-0.9-2-0.9-3.6
		c0-1.5,0.3-2.6,0.9-3.4c0.6-0.7,1.5-1.1,2.8-1.1c0.4,0,0.8,0,1.2,0.1c0.4,0.1,0.7,0.2,1,0.3l-0.1,0.8c-0.6-0.3-1.3-0.5-2-0.5
		C269.6,47.9,268.8,48.1,268.4,48.7z"/>
	<path class="st1" d="M277.5,48.2c-0.4,0.2-0.8,0.5-1,0.9V56h-0.9V43.4l0.9-0.1v3.6l0,1.2l0,0c0.3-0.4,0.7-0.6,1.1-0.9
		c0.5-0.2,1-0.3,1.5-0.3c1,0,1.7,0.3,2.2,0.8c0.5,0.5,0.8,1.3,0.8,2.2v6h-0.9v-6c0-0.7-0.2-1.2-0.6-1.6c-0.4-0.4-1-0.6-1.7-0.6
		C278.4,47.9,277.9,48,277.5,48.2z"/>
</g>
</svg>
