<?xml version="1.0" encoding="utf-8"?>
<!-- Generator: Adobe Illustrator 22.1.0, SVG Export Plug-In . SVG Version: 6.00 Build 0)  -->
<svg version="1.1" id="Layer_1" xmlns="http://www.w3.org/2000/svg" xmlns:xlink="http://www.w3.org/1999/xlink" x="0px" y="0px"
	 viewBox="0 0 48 48" style="enable-background:new 0 0 48 48;" xml:space="preserve">
<style type="text/css">
	.st0{fill:none;stroke:#000000;stroke-width:1.5;stroke-linecap:round;}
	.st1{fill-opacity:0.75;stroke:#000000;stroke-width:1.5;}
	.st2{fill:none;stroke:#0058ee;stroke-width:1.5;stroke-linecap:round;stroke-linejoin:round;}
</style>
<path id="path2626" class="st0" d="M5.3,16.3C5.2,16.3,5.2,16.3,5.3,16.3z"/>
<path id="path3410" class="st1" d="M23.2,13.2l-0.1,28.7"/>
<path id="path3412" class="st1" d="M0.6,41.5l45.2,0.1"/>
<path id="path3434" class="st2" d="M2.3,23.5l2.9-7.3l3,7.5"/>
<path id="path3438" class="st2" d="M40.6,24l2.9-7.3l3,7.5"/>
<line id="svg_5" class="st0" x1="23.2" y1="6.3" x2="23.2" y2="8.3"/>
<g id="svg_9" transform="rotate(0.573231 321.504 109.609)">
	<path id="path3400" class="st0" d="M24.6,14.2c0,0.8-0.5,1.6-1.3,2c-0.8,0.4-1.7,0.4-2.5,0c-0.8-0.4-1.2-1.2-1.2-2
		c0-0.8,0.5-1.6,1.3-2c0.8-0.4,1.7-0.4,2.5,0C24.2,12.6,24.6,13.4,24.6,14.2z"/>
	<line id="svg_4" class="st0" x1="25" y1="14.1" x2="41.6" y2="14.2"/>
	<line id="svg_7" class="st0" x1="2.6" y1="14.1" x2="19.2" y2="14.2"/>
</g>
</svg>
