<?xml version="1.0" encoding="utf-8"?>
<!-- Generator: Adobe Illustrator 22.1.0, SVG Export Plug-In . SVG Version: 6.00 Build 0)  -->
<svg version="1.1" id="Layer_1" xmlns="http://www.w3.org/2000/svg" xmlns:xlink="http://www.w3.org/1999/xlink" x="0px" y="0px"
	 viewBox="0 0 48 48" style="enable-background:new 0 0 48 48;" xml:space="preserve">
<style type="text/css">
	.st0{fill:#00ebe2;}
</style>
<path class="st0" d="M24,25.6c3.1,0,5.6-2.5,5.6-5.6c0-3.1-2.5-5.6-5.6-5.6s-5.6,2.5-5.6,5.6S20.9,25.6,24,25.6z M24,15.9
	c2.2,0,4,1.8,4,4s-1.8,4-4,4s-4-1.8-4-4S21.8,15.9,24,15.9z"/>
<path d="M47.9-0.6H0.1c-0.4,0-0.8,0.4-0.8,0.8v39.7c0,0.4,0.4,0.8,0.8,0.8h47.7c0.4,0,0.8-0.4,0.8-0.8V0.1
	C48.6-0.3,48.3-0.6,47.9-0.6z M47.1,4.7h-2.4c-0.4,0-0.8,0.4-0.8,0.8s0.4,0.8,0.8,0.8h2.4v8.1h-2.4c-0.4,0-0.8,0.4-0.8,0.8
	c0,0.4,0.4,0.8,0.8,0.8h2.4V24h-2.4c-0.4,0-0.8,0.4-0.8,0.8c0,0.4,0.4,0.8,0.8,0.8h2.4v8.1h-2.4c-0.4,0-0.8,0.4-0.8,0.8
	c0,0.4,0.4,0.8,0.8,0.8h2.4V39H0.9v0V0.9h46.2V4.7z"/>
<path d="M24,33.9c7.7,0,13.9-6.2,13.9-13.9c0-3.7-1.4-7.3-4.1-9.9C31.3,7.5,27.8,6,24,6c-3.8,0-7.3,1.4-9.9,4.1
	c-2.6,2.6-4.1,6.2-4.1,9.9c0,3.7,1.4,7.2,4.1,9.8C16.8,32.5,20.3,33.9,24,33.9z M24,7.6c6.8,0,12.3,5.6,12.3,12.4
	c0,6.8-5.5,12.3-12.3,12.3c-6.8,0-12.4-5.5-12.4-12.3C11.6,13.2,17.2,7.6,24,7.6z"/>
</svg>
