<?xml version="1.0" encoding="utf-8"?>
<!-- Generator: Adobe Illustrator 22.1.0, SVG Export Plug-In . SVG Version: 6.00 Build 0)  -->
<svg version="1.1" id="Layer_1" xmlns="http://www.w3.org/2000/svg" xmlns:xlink="http://www.w3.org/1999/xlink" x="0px" y="0px"
	 viewBox="0 0 48 48" style="enable-background:new 0 0 48 48;" xml:space="preserve">
<style type="text/css">
	.st0{fill:none;}
	.st1{fill:#0058ee;}
</style>
<path class="st0" d="M0,0h48v48H0V0z"/>
<g>
	<path d="M43,1.1c-4.9,0-9.8,0-14.7,0c-0.1,0-0.1,0-0.1,0C28,1.1,28,1.1,28,0.9c0-0.2,0-0.4,0-0.6c0-0.5-0.4-0.8-0.8-0.8
		c-2.4,0-4.8,0-7.2,0c-0.4,0-0.7,0.2-0.8,0.6c-0.1,0.2-0.1,0.5-0.1,0.7S19,1.1,18.8,1.1c-4.9,0-9.8,0-14.7,0c-0.3,0-0.4,0.1-0.4,0.4
		c0,15.4,0,30.8,0,46.2C3.7,48,3.8,48,4.1,48c13,0,25.9,0,38.9,0c0.4,0,0.4,0,0.4-0.4c0-7.7,0-15.4,0-23.1c0-7.7,0-15.4,0-23.1
		C43.3,1.2,43.3,1.1,43,1.1z M20.9,1.1c0.9,0,1.7,0,2.6,0c0.8,0,1.7,0,2.6,0c0.2,0,0.2,0.1,0.2,0.2c0,0.7,0,1.3,0,2
		c0,0.2-0.1,0.2-0.2,0.2c-1.7,0-3.5,0-5.2,0c-0.2,0-0.2-0.1-0.2-0.2c0-0.7,0-1.3,0-2C20.7,1.2,20.8,1.1,20.9,1.1z M15.3,2.7
		c1.2,0,2.4,0,3.5,0c0.2,0,0.2,0.1,0.2,0.2c0,0.7,0,1.3,0,1.9c0,0.2,0.1,0.2,0.2,0.2c2.8,0,5.6,0,8.4,0C28,5.1,28,5.1,28,4.8
		c0-0.7,0-1.3,0-1.9c0-0.2,0.1-0.2,0.2-0.2c1.2,0,2.4,0,3.5,0C32,2.7,32,2.7,32,3c0,0.9,0,1.8,0,2.6c0,0.2-0.1,0.3-0.3,0.3
		c-2.8,0-5.4,0-8.2,0c-2.7,0-5.4,0-8.1,0c-0.4,0-0.4,0-0.4-0.4c0-0.9,0-1.7,0-2.6C15.1,2.8,15.1,2.7,15.3,2.7z M41.4,46.4
		c-11.9,0-23.8,0-35.7,0c-0.2,0-0.3-0.1-0.3-0.3c0-14.3,0-28.7,0-43c0-0.3,0.1-0.4,0.4-0.3c2.5,0,4.9,0,7.4,0c0.4,0,0.4,0,0.4,0.4
		c-0.1,1.4,0.1,2.8,0,4.2c0,0.2,0.1,0.3,0.3,0.3c6.5,0,13.1,0,19.6,0c0.2,0,0.3-0.1,0.3-0.3c0-1.1,0-2.3,0-3.5c0-0.3,0-0.6,0-0.9
		c0-0.2,0.1-0.2,0.2-0.2c2.6,0,5.1,0,7.7,0c0.2,0,0.2,0.1,0.2,0.2c0,0.1,0,0.1,0,0.2c0,7.1,0,14.3,0,21.4c0,7.2,0,14.3,0,21.5
		C41.7,46.3,41.7,46.4,41.4,46.4z"/>
	<path class="st1" d="M31.7,20.5c-0.1-0.1-0.2-0.1-0.4-0.1c-0.5-0.1-0.8,0.2-1.1,0.5c-2.8,2.8-5.6,5.6-8.4,8.4
		c-0.2,0.2-0.2,0.2-0.4,0c-0.7-0.8-1.5-1.5-2.3-2.3c-0.5-0.5-1-1-1.5-1.4c-0.4-0.2-1-0.2-1.3,0.1c-0.5,0.5-0.5,1.1-0.1,1.7
		c0.3,0.4,0.7,0.7,1,1c0.7,0.7,1.3,1.4,2,2c0.1,0.1,0.2,0.2,0.3,0.3c0.4,0.4,0.8,0.8,1.2,1.2c0.5,0.5,1.3,0.5,1.8-0.2
		c0.1-0.1,0.1,0.1,0.1,0l0.1-0.1c3.1-3.1,6.2-6.2,9.3-9.3c0.2-0.2,0.3-0.4,0.4-0.6C32.4,21.2,32.3,20.9,31.7,20.5z"/>
</g>
</svg>
