<?xml version="1.0" encoding="utf-8"?>
<svg version="1.1" xmlns="http://www.w3.org/2000/svg" xmlns:xlink="http://www.w3.org/1999/xlink" x="0px" y="0px"
	 viewBox="0 0 535 101" style="enable-background:new 0 0 535 101;" xml:space="preserve">
<style type="text/css">
	.st0{display:none;}
	.st1{display:inline;}
	.st2{fill:#5471F9;}
	.st3{fill:#31E8B7;}
	.st4{fill:#2B3442;}
	.st5{fill:#026602;}
	.st6{fill:#5AB45A;}
	.st7{fill:#004600;}
	.st8{fill:#076B07;}
	.st9{fill:#0A6E0A;}
</style>
<g id="Layer_1" class="st0">
	<g class="st1">
		<path class="st2" d="M0,112h47.7V17.9H0V112z"/>
		<path class="st3" d="M82.8,0L53.3,131.1l7.4,1.6L90.3,1.6L82.8,0z"/>
		<path class="st2" d="M136.6,14c-28.3,0-51.2,22.7-51.2,50.8c0,28.1,22.9,50.8,51.2,50.8c28.3,0,51.2-22.7,51.2-50.8
			C187.9,36.7,164.9,14,136.6,14"/>
	</g>
</g>
<g id="Layer_2">
	<g id="uberdelta" transform="translate(84.000000, 8.000000)">
		<path id="UBERDELTA" class="st4" d="M39.8,13.3v34.1c0,3.4-0.8,6.3-2.2,8.8c-1.5,2.5-3.5,4.4-6.2,5.8c-2.7,1.3-5.7,2-9.2,2
			c-5.3,0-9.5-1.4-12.7-4.3c-3.2-2.9-4.8-6.9-4.9-11.9V13.3h4.2v33.8c0,4.2,1.2,7.5,3.6,9.8c2.4,2.3,5.7,3.5,9.8,3.5
			s7.4-1.2,9.8-3.5c2.4-2.3,3.6-5.6,3.6-9.8V13.3H39.8z M61.2,63.3v-50h14.8c5.4,0,9.4,1.1,12.2,3.3c2.8,2.2,4.2,5.5,4.2,9.8
			c0,2.6-0.7,4.8-2.1,6.7s-3.3,3.3-5.8,4.1c2.9,0.6,5.2,2.1,7,4.3s2.7,4.8,2.7,7.7c0,4.4-1.4,7.9-4.3,10.4
			c-2.9,2.5-6.8,3.7-11.9,3.7H61.2z M65.4,39.3v20.5h12.7c3.6,0,6.5-0.9,8.6-2.8c2.1-1.8,3.2-4.4,3.2-7.7c0-3.1-1-5.5-3-7.3
			c-2-1.8-4.8-2.7-8.4-2.7H65.4z M65.4,35.8h11.5c3.5-0.1,6.3-0.9,8.2-2.5c1.9-1.6,2.9-3.9,2.9-7c0-3.2-1-5.6-3-7.1s-5-2.3-9.1-2.3
			H65.4V35.8z M141.4,39.4H118v20.4h26.9v3.6h-31.1v-50h30.9v3.6H118v18.9h23.4V39.4z M182.1,42.5h-14.5v20.8h-4.3v-50h16.2
			c5.3,0,9.5,1.3,12.5,3.9c3,2.6,4.5,6.2,4.5,10.9c0,3.2-0.9,6-2.8,8.5c-1.9,2.5-4.4,4.1-7.6,5.1l12.5,21.3v0.4h-4.5L182.1,42.5z
			 M167.5,38.9h12.9c3.5,0,6.4-1,8.6-3c2.2-2,3.2-4.6,3.2-7.8c0-3.5-1.1-6.3-3.4-8.2c-2.2-1.9-5.4-2.9-9.4-2.9h-11.9V38.9z
			 M216.3,63.3v-50h14.8c4.4,0,8.3,1,11.8,3c3.4,2,6.1,4.8,8,8.4c1.9,3.6,2.8,7.8,2.8,12.4v2.5c0,4.7-0.9,8.9-2.8,12.5
			c-1.9,3.6-4.6,6.4-8.1,8.3c-3.5,1.9-7.5,2.9-12,2.9H216.3z M225,20.3v36.1h5.7c4.6,0,8.1-1.4,10.5-4.3c2.4-2.9,3.7-6.9,3.7-12.3
			v-2.8c0-5.4-1.2-9.6-3.5-12.4s-5.8-4.3-10.3-4.3H225z M301.1,41h-20.5v15.4h24v6.9h-32.7v-50h32.5v7h-23.8v13.8h20.5V41z
			 M329.9,56.4h22.7v6.9h-31.4v-50h8.7V56.4z M397.9,20.3h-15.6v43h-8.6v-43h-15.5v-7h39.7V20.3z M437.8,51.7h-19.4l-4.1,11.6h-9
			l18.9-50h7.8l18.9,50h-9.1L437.8,51.7z M420.9,44.7h14.5L428.2,24L420.9,44.7z"/>
	</g>
	<g id="mark" transform="translate(3.000000, 2.000000)">
		<g>
			<g id="Group">
				<polygon id="Shape" class="st5" points="29.3,-2 28.6,0.3 28.6,66.6 29.3,67.3 59.9,49.1 				"/>
				<polygon id="Shape_1_" class="st6" points="29.3,-2 -1.3,49.1 29.3,67.3 				"/>
				<polyline id="Shape_2_" class="st7" points="29.3,67.3 60,49.1 29.3,35.1 29.3,67.3 				"/>
				<polyline id="Shape_3_" class="st8" points="-1.3,49.1 29.3,67.3 29.3,35.1 				"/>
			</g>
			<path id="Oval" class="st9" d="M29.1,98.3c11.4-0.1,30.7-19.2,30.7-43.2c0,0-10.2,5.9-30.7,17.7C29.1,89.8,29.1,98.3,29.1,98.3z"
				/>
			<path id="Oval_1_" class="st6" d="M29.3,98.3C17.9,98.3-1.4,79.1-1.4,55.1c0,0,10.2,5.9,30.7,17.7C29.3,89.8,29.3,98.3,29.3,98.3
				z"/>
		</g>
	</g>
</g>
</svg>
