<?xml version="1.0" encoding="utf-8"?>
<!-- Generator: Adobe Illustrator 22.0.1, SVG Export Plug-In . SVG Version: 6.00 Build 0)  -->
<svg version="1.1" id="Layer_1" xmlns="http://www.w3.org/2000/svg" xmlns:xlink="http://www.w3.org/1999/xlink" x="0px" y="0px"
	 viewBox="0 0 500 100" style="enable-background:new 0 0 500 100;" xml:space="preserve">
<style type="text/css">
	.st0{display:none;}
	.st1{display:inline;}
	.st2{fill:#5471F9;}
	.st3{fill:#31E8B7;}
	.st4{fill:#2B3442;}
	.st5{fill:#026602;}
	.st6{fill:#5AB45A;}
	.st7{fill:#004600;}
	.st8{fill:#076B07;}
	.st9{fill:#0A6E0A;}
</style>
<g id="Layer_1_1_" class="st0">
	<g class="st1">
		<path class="st2" d="M0,112h47.7V17.9H0V112z"/>
		<path class="st3" d="M82.8,0L53.3,131.1l7.4,1.6L90.3,1.6L82.8,0z"/>
		<path class="st2" d="M136.6,14c-28.3,0-51.2,22.7-51.2,50.8s22.9,50.8,51.2,50.8s51.2-22.7,51.2-50.8
			C187.9,36.7,164.9,14,136.6,14"/>
	</g>
</g>
<g id="Layer_2_1_">
</g>
<g id="Layer_3">
	<g id="uberdelta" transform="translate(84.000000, 8.000000)">
		<path id="UBERDELTA" class="st4" d="M30.6,14.9v32c0,3.1-0.8,5.9-2.1,8.3c-1.4,2.4-3.3,4.1-5.8,5.4c-2.5,1.3-5.4,1.9-8.7,1.9
			c-4.9,0-8.9-1.4-11.8-4c-3-2.6-4.5-6.4-4.6-11.2V14.9h3.9v31.7c0,3.9,1.1,7,3.4,9.2C7.1,57.9,10.1,59,14,59s6.9-1.1,9.2-3.3
			c2.3-2.1,3.4-5.3,3.4-9.2V14.9H30.6z M50.5,61.8V14.9h13.8c5,0,8.8,1,11.4,3.1s3.9,5.2,3.9,9.2c0,2.4-0.6,4.5-2,6.3
			s-3.1,3-5.4,3.9c2.8,0.6,4.9,1.9,6.5,4c1.6,2.1,2.5,4.5,2.5,7.2c0,4.1-1.4,7.4-4,9.7c-2.6,2.4-6.4,3.5-11.2,3.5H50.5z M54.6,39.3
			v19.2h11.9c3.4,0,6-0.9,8-2.6c2-1.8,3-4.1,3-7.2c0-2.9-1-5.2-2.9-6.9c-1.9-1.6-4.5-2.5-7.9-2.5C66.8,39.3,54.6,39.3,54.6,39.3z
			 M54.6,35.9h10.8c3.3-0.1,5.9-0.9,7.7-2.4c1.8-1.5,2.8-3.6,2.8-6.5c0-3-0.9-5.3-2.8-6.7c-1.9-1.4-4.8-2.1-8.5-2.1h-9.9
			C54.6,18.2,54.6,35.9,54.6,35.9z M125.8,39.3h-21.9v19.1h25.3v3.4H99.9V14.9h29v3.4h-25V36h22v3.3H125.8z M163.9,42.3h-13.6v19.5
			h-4V14.9h15.2c5,0,8.9,1.3,11.7,3.6s4.3,5.8,4.3,10.2c0,3-0.9,5.7-2.6,7.9c-1.8,2.3-4.1,3.9-7,4.8l11.7,20v0.4h-4.3L163.9,42.3z
			 M150.3,38.9h12.2c3.3,0,6-1,8-2.9c2-1.9,3-4.4,3-7.3c0-3.3-1-5.9-3.1-7.7c-2.1-1.9-5-2.8-8.8-2.8h-11.2v20.6H150.3z M196,61.8
			V14.9h13.8c4.1,0,7.8,0.9,11.1,2.8s5.7,4.5,7.4,7.9c1.8,3.4,2.6,7.3,2.6,11.7v2.4c0,4.4-0.9,8.3-2.6,11.7
			c-1.8,3.4-4.3,5.9-7.5,7.8c-3.3,1.9-7,2.8-11.3,2.8H196V61.8z M204.2,21.5v33.8h5.3c4.3,0,7.5-1.4,9.8-4c2.3-2.6,3.4-6.5,3.5-11.6
			V37c0-5-1.1-8.9-3.3-11.7s-5.4-4-9.7-4h-5.7V21.5z M275.4,40.9h-19.2v14.4h22.5v6.5H248v-47h30.4v6.5h-22.2v12.9h19.2V40.9z
			 M302.4,55.3h21.2v6.5h-29.4V14.9h8.2V55.3z M366.3,21.5h-14.6v40.3h-8V21.5h-14.4v-6.5h37.2v6.5H366.3z M403.7,50.9h-18.2
			l-3.8,10.9h-8.4L391,14.9h7.3L416,61.8h-8.5L403.7,50.9z M387.9,44.3h13.6l-6.8-19.5L387.9,44.3z"/>
	</g>
	<g id="mark" transform="translate(3.000000, 2.000000)">
		<g>
			<g id="Group">
				<polygon id="Shape" class="st5" points="25.8,1 25.1,3.1 25.1,65.3 25.8,65.9 54.5,48.8 				"/>
				<polygon id="Shape_1_" class="st6" points="25.8,1 -2.9,48.8 25.8,65.9 				"/>
				<polyline id="Shape_2_" class="st7" points="25.8,65.9 54.5,48.8 25.8,35.8 25.8,65.9 				"/>
				<polyline id="Shape_3_" class="st8" points="-2.9,48.8 25.8,65.9 25.8,35.8 				"/>
			</g>
			<path id="Oval" class="st9" d="M25.6,95c10.7,0,28.8-18,28.8-40.6c0,0-9.5,5.5-28.8,16.6C25.6,87,25.6,95,25.6,95z"/>
			<path id="Oval_1_" class="st6" d="M25.8,95C15.1,95-3,77.1-3,54.5c0,0,9.5,5.5,28.8,16.6C25.8,87,25.8,95,25.8,95z"/>
		</g>
	</g>
</g>
</svg>
