<?xml version="1.0" encoding="utf-8"?>
<!-- Generator: Adobe Illustrator 22.1.0, SVG Export Plug-In . SVG Version: 6.00 Build 0)  -->
<svg version="1.1" id="Layer_1" xmlns="http://www.w3.org/2000/svg" xmlns:xlink="http://www.w3.org/1999/xlink" x="0px" y="0px"
	 viewBox="0 0 535 101" style="enable-background:new 0 0 535 101;" xml:space="preserve">
<style type="text/css">
	.st0{fill:#2B3442;}
	.st1{fill:#026602;}
	.st2{fill:#5AB45A;}
	.st3{fill:#004600;}
	.st4{fill:#076B07;}
	.st5{fill:#0A6E0A;}
</style>
<g id="Layer_2_1_">
	<g id="uberdelta" transform="translate(84.000000, 8.000000)">
		<path id="UBERDELTA" class="st0" d="M39.8,13.3v34.1c0,3.4-0.8,6.3-2.2,8.8c-1.5,2.5-3.5,4.4-6.2,5.8c-2.7,1.3-5.7,2-9.2,2
			c-5.3,0-9.5-1.4-12.7-4.3c-3.2-2.9-4.8-6.9-4.9-11.9V13.3h4.2v33.8c0,4.2,1.2,7.5,3.6,9.8s5.7,3.5,9.8,3.5s7.4-1.2,9.8-3.5
			s3.6-5.6,3.6-9.8V13.3H39.8z M61.2,63.3v-50H76c5.4,0,9.4,1.1,12.2,3.3c2.8,2.2,4.2,5.5,4.2,9.8c0,2.6-0.7,4.8-2.1,6.7
			s-3.3,3.3-5.8,4.1c2.9,0.6,5.2,2.1,7,4.3s2.7,4.8,2.7,7.7c0,4.4-1.4,7.9-4.3,10.4s-6.8,3.7-11.9,3.7H61.2z M65.4,39.3v20.5h12.7
			c3.6,0,6.5-0.9,8.6-2.8c2.1-1.8,3.2-4.4,3.2-7.7c0-3.1-1-5.5-3-7.3s-4.8-2.7-8.4-2.7H65.4z M65.4,35.8h11.5
			c3.5-0.1,6.3-0.9,8.2-2.5c1.9-1.6,2.9-3.9,2.9-7c0-3.2-1-5.6-3-7.1s-5-2.3-9.1-2.3H65.4V35.8z M141.4,39.4H118v20.4h26.9v3.6
			h-31.1v-50h30.9V17H118v18.9h23.4V39.4z M182.1,42.5h-14.5v20.8h-4.3v-50h16.2c5.3,0,9.5,1.3,12.5,3.9s4.5,6.2,4.5,10.9
			c0,3.2-0.9,6-2.8,8.5c-1.9,2.5-4.4,4.1-7.6,5.1L198.6,63v0.4h-4.5L182.1,42.5z M167.5,38.9h12.9c3.5,0,6.4-1,8.6-3
			c2.2-2,3.2-4.6,3.2-7.8c0-3.5-1.1-6.3-3.4-8.2c-2.2-1.9-5.4-2.9-9.4-2.9h-11.9L167.5,38.9L167.5,38.9z M216.3,63.3v-50h14.8
			c4.4,0,8.3,1,11.8,3c3.4,2,6.1,4.8,8,8.4s2.8,7.8,2.8,12.4v2.5c0,4.7-0.9,8.9-2.8,12.5c-1.9,3.6-4.6,6.4-8.1,8.3
			c-3.5,1.9-7.5,2.9-12,2.9H216.3z M225,20.3v36.1h5.7c4.6,0,8.1-1.4,10.5-4.3c2.4-2.9,3.7-6.9,3.7-12.3V37c0-5.4-1.2-9.6-3.5-12.4
			s-5.8-4.3-10.3-4.3H225z M301.1,41h-20.5v15.4h24v6.9h-32.7v-50h32.5v7h-23.8v13.8h20.5V41z M329.9,56.4h22.7v6.9h-31.4v-50h8.7
			L329.9,56.4L329.9,56.4z M397.9,20.3h-15.6v43h-8.6v-43h-15.5v-7h39.7V20.3z M437.8,51.7h-19.4l-4.1,11.6h-9l18.9-50h7.8l18.9,50
			h-9.1L437.8,51.7z M420.9,44.7h14.5L428.2,24L420.9,44.7z"/>
	</g>
	<g id="mark" transform="translate(3.000000, 2.000000)">
		<g>
			<g id="Group">
				<polygon id="Shape" class="st1" points="29.3,-2 28.6,0.3 28.6,66.6 29.3,67.3 59.9,49.1 				"/>
				<polygon id="Shape_1_" class="st2" points="29.3,-2 -1.3,49.1 29.3,67.3 				"/>
				<polyline id="Shape_2_" class="st3" points="29.3,67.3 60,49.1 29.3,35.1 29.3,67.3 				"/>
				<polyline id="Shape_3_" class="st4" points="-1.3,49.1 29.3,67.3 29.3,35.1 				"/>
			</g>
			<path id="Oval" class="st5" d="M29.1,98.3c11.4-0.1,30.7-19.2,30.7-43.2c0,0-10.2,5.9-30.7,17.7C29.1,89.8,29.1,98.3,29.1,98.3z"
				/>
			<path id="Oval_1_" class="st2" d="M29.3,98.3c-11.4,0-30.7-19.2-30.7-43.2c0,0,10.2,5.9,30.7,17.7C29.3,89.8,29.3,98.3,29.3,98.3
				z"/>
		</g>
	</g>
</g>
</svg>
