<?xml version="1.0" encoding="utf-8"?>
<!-- Generator: Adobe Illustrator 22.1.0, SVG Export Plug-In . SVG Version: 6.00 Build 0)  -->
<svg version="1.1" id="Layer_1" xmlns="http://www.w3.org/2000/svg" xmlns:xlink="http://www.w3.org/1999/xlink" x="0px" y="0px"
	 viewBox="0 0 158 52" style="enable-background:new 0 0 158 52;" xml:space="preserve">
<style type="text/css">
	.st0{fill:#2B3442;}
	.st1{fill:#026602;}
	.st2{fill:#5AB45A;}
	.st3{fill:#004600;}
	.st4{fill:#076B07;}
	.st5{fill:#0A6E0A;}
</style>
<g id="Layer_2_1_">
	<g id="uberdelta" transform="translate(84.000000, 8.000000)">
		<path id="UBERDELTA" class="st0" d="M-47.4,8.5v10.1c0,1-0.2,1.9-0.7,2.6s-1,1.3-1.8,1.7c-0.8,0.4-1.7,0.6-2.7,0.6
			c-1.6,0-2.8-0.4-3.7-1.3s-1.4-2-1.5-3.5V8.5h1.2v10c0,1.2,0.4,2.2,1.1,2.9c0.7,0.7,1.7,1,2.9,1s2.2-0.3,2.9-1s1.1-1.7,1.1-2.9v-10
			H-47.4z M-41.1,23.3V8.5h4.4c1.6,0,2.8,0.3,3.6,1s1.2,1.6,1.2,2.9c0,0.8-0.2,1.4-0.6,2c-0.4,0.6-1,1-1.7,1.2
			c0.9,0.2,1.6,0.6,2.1,1.3s0.8,1.4,0.8,2.3c0,1.3-0.4,2.3-1.3,3.1c-0.9,0.8-2,1.1-3.5,1.1h-5V23.3z M-39.8,16.2v6.1h3.8
			c1.1,0,1.9-0.3,2.5-0.8s0.9-1.3,0.9-2.3c0-0.9-0.3-1.6-0.9-2.2c-0.6-0.5-1.4-0.8-2.5-0.8C-36,16.2-39.8,16.2-39.8,16.2z
			 M-39.8,15.1h3.4c1,0,1.9-0.3,2.4-0.7c0.6-0.5,0.9-1.2,0.9-2.1s-0.3-1.6-0.9-2.1c-0.6-0.5-1.5-0.7-2.7-0.7h-3.1
			C-39.8,9.5-39.8,15.1-39.8,15.1z M-17.3,16.2h-6.9v6h8v1.1h-9.2V8.5h9.2v1.1h-7.9v5.6h6.9v1H-17.3z M-5.3,17.1h-4.3v6.2h-1.3V8.5
			H-6c1.6,0,2.8,0.4,3.7,1.1c0.9,0.8,1.3,1.8,1.3,3.2c0,0.9-0.3,1.8-0.8,2.5C-2.4,16-3.1,16.5-4,16.8l3.7,6.3v0.1h-1.3L-5.3,17.1z
			 M-9.6,16h3.8c1.1,0,1.9-0.3,2.5-0.9s1-1.4,1-2.3c0-1-0.3-1.9-1-2.4C-4,9.8-4.9,9.5-6.1,9.5h-3.5V16z M4.9,23.3V8.5h4.4
			c1.3,0,2.5,0.3,3.5,0.9c1,0.6,1.8,1.4,2.4,2.5s0.8,2.3,0.8,3.7v0.7c0,1.4-0.3,2.6-0.8,3.7c-0.6,1.1-1.4,1.9-2.4,2.5
			s-2.2,0.9-3.6,0.9H4.9V23.3z M7.4,10.5v10.7h1.7c1.3,0,2.4-0.4,3.1-1.3c0.7-0.8,1.1-2.1,1.1-3.6v-0.8c0-1.6-0.3-2.8-1-3.7
			c-0.7-0.8-1.7-1.3-3-1.3C9.3,10.5,7.4,10.5,7.4,10.5z M30,16.7h-6.1v4.6H31v2.1h-9.7V8.5h9.6v2.1h-7v4.1H30V16.7z M38.5,21.2h6.7
			v2.1h-9.3V8.5h2.6V21.2z M58.6,10.5H54v12.7h-2.6V10.5h-4.6v-2h11.8C58.6,8.5,58.6,10.5,58.6,10.5z M70.5,19.8h-5.7l-1.2,3.4h-2.7
			l5.6-14.8h2.3l5.6,14.8h-2.7L70.5,19.8z M65.5,17.7h4.3l-2.1-6.1L65.5,17.7z"/>
	</g>
	<g id="mark" transform="translate(3.000000, 2.000000)">
		<g>
			<g id="Group">
				<polygon id="Shape" class="st1" points="6.5,8.1 6.3,8.8 6.3,28.5 6.5,28.7 15.5,23.3 				"/>
				<polygon id="Shape_1_" class="st2" points="6.5,8.1 -2.6,23.3 6.5,28.7 				"/>
				<polyline id="Shape_2_" class="st3" points="6.5,28.7 15.6,23.3 6.5,19.1 6.5,28.7 				"/>
				<polyline id="Shape_3_" class="st4" points="-2.6,23.3 6.5,28.7 6.5,19.1 				"/>
			</g>
			<path id="Oval" class="st5" d="M6.4,37.9c3.4,0,9.1-5.7,9.1-12.8c0,0-3,1.7-9.1,5.2C6.4,35.3,6.4,37.9,6.4,37.9z"/>
			<path id="Oval_1_" class="st2" d="M6.5,37.9c-3.4,0-9.1-5.7-9.1-12.8c0,0,3,1.7,9.1,5.2C6.5,35.3,6.5,37.9,6.5,37.9z"/>
		</g>
	</g>
</g>
</svg>
