<?xml version="1.0" encoding="utf-8"?>
<!-- Generator: Adobe Illustrator 22.0.1, SVG Export Plug-In . SVG Version: 6.00 Build 0)  -->
<svg version="1.1" id="Layer_1" xmlns="http://www.w3.org/2000/svg" xmlns:xlink="http://www.w3.org/1999/xlink" x="0px" y="0px" width="240" height="52"
	 viewBox="0 0 240 52" style="enable-background:new 0 0 240 52;" xml:space="preserve">
<g id="_x31_uberdelta" transform="translate(84.000000, 8.000000)">
	<path id="_x31_UBERDELTA" d="M-29.1,5.6v15.2c0,1.5-0.3,2.9-1.1,3.9c-0.8,1.1-1.5,2-2.7,2.6c-1.2,0.6-2.6,0.9-4.1,0.9
		c-2.4,0-4.2-0.6-5.6-2c-1.4-1.4-2.1-3-2.3-5.3V5.6h1.8v15.1c0,1.8,0.6,3.3,1.7,4.4c1.1,1.1,2.6,1.5,4.4,1.5c1.8,0,3.3-0.5,4.4-1.5
		s1.7-2.6,1.7-4.4V5.6H-29.1z M-19.6,27.9V5.6h6.6c2.4,0,4.2,0.5,5.4,1.5s1.8,2.4,1.8,4.4c0,1.2-0.3,2.1-0.9,3
		c-0.6,0.9-1.5,1.5-2.6,1.8c1.4,0.3,2.4,0.9,3.2,2s1.2,2.1,1.2,3.5c0,2-0.6,3.5-2,4.7c-1.4,1.2-3,1.7-5.3,1.7h-7.5V27.9z
		 M-17.6,17.2v9.2h5.7c1.7,0,2.9-0.5,3.8-1.2c0.9-0.8,1.4-2,1.4-3.5c0-1.4-0.5-2.4-1.4-3.3c-0.9-0.8-2.1-1.2-3.8-1.2
		C-11.9,17.2-17.6,17.2-17.6,17.2z M-17.6,15.6h5.1c1.5,0,2.9-0.5,3.6-1.1c0.9-0.8,1.4-1.8,1.4-3.2S-8,9-8.9,8.2
		c-0.9-0.8-2.3-1.1-4.1-1.1h-4.7C-17.6,7.1-17.6,15.6-17.6,15.6z M16.3,17.2H5.9v9H18v1.7H4.1V5.6H18v1.7H6v8.4h10.4v1.5H16.3z
		 M34.4,18.6h-6.5v9.3h-2V5.6h7.4c2.4,0,4.2,0.6,5.6,1.7c1.4,1.2,2,2.7,2,4.8c0,1.4-0.5,2.7-1.2,3.8c-0.9,1.1-2,1.8-3.3,2.3l5.6,9.5
		v0.2h-2L34.4,18.6z M27.9,16.9h5.7c1.7,0,2.9-0.5,3.8-1.4c0.9-0.9,1.5-2.1,1.5-3.5c0-1.5-0.5-2.9-1.5-3.6c-1.1-0.9-2.4-1.4-4.2-1.4
		h-5.3V16.9z M49.7,27.9V5.6h6.6c2,0,3.8,0.5,5.3,1.4c1.5,0.9,2.7,2.1,3.6,3.8c0.9,1.7,1.2,3.5,1.2,5.6v1.1c0,2.1-0.5,3.9-1.2,5.6
		c-0.9,1.7-2.1,2.9-3.6,3.8c-1.5,0.9-3.3,1.4-5.4,1.4h-6.5V27.9z M53.5,8.7v16.1h2.6c2,0,3.6-0.6,4.7-2c1.1-1.2,1.7-3.2,1.7-5.4
		v-1.2c0-2.4-0.5-4.2-1.5-5.6c-1.1-1.2-2.6-2-4.5-2C56.4,8.7,53.5,8.7,53.5,8.7z M87.6,18h-9.2v6.9h10.7v3.2H74.5V5.6h14.5v3.2H78.4
		V15h9.2V18z M100.4,24.8h10.1v3.2h-14V5.6h3.9V24.8z M130.7,8.7h-6.9v19.1h-3.9V8.7h-6.9v-3h17.8C130.7,5.6,130.7,8.7,130.7,8.7z
		 M148.6,22.7H140l-1.8,5.1h-4.1l8.4-22.3h3.5l8.4,22.3h-4.1L148.6,22.7z M141.1,19.5h6.5l-3.2-9.2L141.1,19.5z"/>
</g>
<g id="_x31_mark" transform="translate(3.000000, 2.000000)">
	<g>
		<g id="_x31_Group">
			<polygon id="_x31_Shape" points="11.1,2 10.8,3.1 10.8,32.7 11.1,33 24.7,24.9 			"/>
			<polygon id="Shape_1_" points="11.1,2 -2.6,24.9 11.1,33 			"/>
			<polyline id="Shape_2_" points="11.1,33 24.8,24.9 11.1,18.6 11.1,33 			"/>
			<polyline id="Shape_3_" points="-2.6,24.9 11.1,33 11.1,18.6 			"/>
		</g>
		<path id="_x31_Oval" d="M11,46.9c5.1,0,13.7-8.6,13.7-19.3c0,0-4.5,2.6-13.7,7.8C11,43,11,46.9,11,46.9z"/>
		<path id="_x31_Oval_x5F_1_x5F_" d="M11.1,46.9C6,46.9-2.6,38.3-2.6,27.6c0,0,4.5,2.6,13.7,7.8C11.1,43,11.1,46.9,11.1,46.9z"/>
	</g>
</g>
</svg>
