<?xml version="1.0" encoding="utf-8"?>
<!-- Generator: Adobe Illustrator 22.0.1, SVG Export Plug-In . SVG Version: 6.00 Build 0)  -->
<svg version="1.1" xmlns="http://www.w3.org/2000/svg" xmlns:xlink="http://www.w3.org/1999/xlink" x="0px" y="0px"
	 viewBox="0 0 158 52" style="enable-background:new 0 0 158 52;" xml:space="preserve">
<style type="text/css">
	.st0{display:none;}
	.st1{display:inline;}
	.st2{fill:#2B3442;}
	.st3{fill:#026602;}
	.st4{fill:#5AB45A;}
	.st5{fill:#004600;}
	.st6{fill:#076B07;}
	.st7{fill:#0A6E0A;}
</style>
<g id="Layer_1" class="st0">
	<path class="st1" d="M60.8,27.7c0-4.6-3.3-7.7-7.2-7.7s-7.2,3.1-7.2,7.7c0,4.5,3.3,7.7,7.2,7.7S60.8,32.2,60.8,27.7z M66.3,27.7
		c0,7.3-5.7,12.7-12.7,12.7c-7,0-12.7-5.4-12.7-12.7c0-7.3,5.7-12.7,12.7-12.7C60.6,15,66.3,20.3,66.3,27.7z M88.8,27.7
		c0-4.6-3.3-7.7-7.2-7.7c-3.8,0-7.2,3.1-7.2,7.7c0,4.5,3.3,7.7,7.2,7.7S88.8,32.2,88.8,27.7 M94.3,27.7c0,7.3-5.7,12.7-12.7,12.7
		c-7,0-12.7-5.4-12.7-12.7c0-7.3,5.7-12.7,12.7-12.7C88.6,15,94.3,20.3,94.3,27.7 M116.3,27.7c0-4.5-3-7.7-6.8-7.7
		c-3.8,0-7.1,3.3-7.1,7.7c0,4.4,3.2,7.6,7.1,7.6C113.3,35.4,116.3,32.2,116.3,27.7z M121.2,15.8v22.8c0,9.4-5.5,13.2-12,13.2
		c-6.1,0-9.8-4.1-11.2-7.5l4.8-2c0.9,2.1,3,4.5,6.4,4.5c4.2,0,6.8-2.6,6.8-7.4v-1.8h-0.2c-1.2,1.5-3.7,2.9-6.7,2.9
		c-6.3,0-12.1-5.5-12.1-12.6c0-7.2,5.8-12.7,12.1-12.7c3,0,5.4,1.3,6.7,2.8h0.2v-2.1L121.2,15.8L121.2,15.8z M125.6,39.6h5.5v-37
		h-5.5V39.6z M139.5,27.3l11.3-4.7c-0.6-1.6-2.5-2.7-4.7-2.7C143.3,19.9,139.4,22.4,139.5,27.3 M152.8,31.9l4.3,2.9
		c-1.4,2.1-4.8,5.6-10.6,5.6c-7.2,0-12.6-5.6-12.6-12.7c0-7.5,5.4-12.7,12-12.7c6.6,0,9.8,5.2,10.8,8.1l0.6,1.4l-16.9,7
		c1.3,2.5,3.3,3.8,6.1,3.8S151.4,34,152.8,31.9 M38.1,18.8c0.2,1.1,0.3,2.3,0.3,3.4c0,4-1.1,9-4.7,12.6c-3.5,3.6-7.9,5.5-13.7,5.5
		c-10.8,0-20-8.8-20-19.7C0,9.8,9.1,1,20,1c6,0,10.3,2.4,13.5,5.4l-3.8,3.8c-2.3-2.2-5.4-3.8-9.7-3.8C12,6.4,5.9,12.8,5.9,20.7
		C5.9,28.6,12,35,20,35c5.1,0,8.1-2.1,9.9-3.9c1.5-1.5,2.6-3.8,3-6.8H20v-5.4L38.1,18.8L38.1,18.8z"/>
</g>
<g id="Layer_2">
	<g id="uberdelta" transform="translate(84.000000, 8.000000)">
		<path id="UBERDELTA" class="st2" d="M-47.4,8.5v10.1c0,1-0.2,1.9-0.7,2.6s-1,1.3-1.8,1.7c-0.8,0.4-1.7,0.6-2.7,0.6
			c-1.6,0-2.8-0.4-3.7-1.3c-0.9-0.9-1.4-2-1.5-3.5V8.5h1.2v10c0,1.2,0.4,2.2,1.1,2.9c0.7,0.7,1.7,1,2.9,1c1.2,0,2.2-0.3,2.9-1
			c0.7-0.7,1.1-1.7,1.1-2.9v-10H-47.4z M-41.1,23.3V8.5h4.4c1.6,0,2.8,0.3,3.6,1c0.8,0.7,1.2,1.6,1.2,2.9c0,0.8-0.2,1.4-0.6,2
			c-0.4,0.6-1,1-1.7,1.2c0.9,0.2,1.6,0.6,2.1,1.3c0.5,0.7,0.8,1.4,0.8,2.3c0,1.3-0.4,2.3-1.3,3.1s-2,1.1-3.5,1.1H-41.1z M-39.8,16.2
			v6.1h3.8c1.1,0,1.9-0.3,2.5-0.8c0.6-0.5,0.9-1.3,0.9-2.3c0-0.9-0.3-1.6-0.9-2.2c-0.6-0.5-1.4-0.8-2.5-0.8H-39.8z M-39.8,15.1h3.4
			c1,0,1.9-0.3,2.4-0.7c0.6-0.5,0.9-1.2,0.9-2.1c0-0.9-0.3-1.6-0.9-2.1c-0.6-0.5-1.5-0.7-2.7-0.7h-3.1V15.1z M-17.3,16.2h-6.9v6h8
			v1.1h-9.2V8.5h9.2v1.1h-7.9v5.6h6.9V16.2z M-5.3,17.1h-4.3v6.2h-1.3V8.5H-6c1.6,0,2.8,0.4,3.7,1.1c0.9,0.8,1.3,1.8,1.3,3.2
			c0,0.9-0.3,1.8-0.8,2.5c-0.6,0.7-1.3,1.2-2.2,1.5l3.7,6.3v0.1h-1.3L-5.3,17.1z M-9.6,16h3.8c1.1,0,1.9-0.3,2.5-0.9s1-1.4,1-2.3
			c0-1-0.3-1.9-1-2.4c-0.7-0.6-1.6-0.9-2.8-0.9h-3.5V16z M4.9,23.3V8.5h4.4c1.3,0,2.5,0.3,3.5,0.9c1,0.6,1.8,1.4,2.4,2.5
			s0.8,2.3,0.8,3.7v0.7c0,1.4-0.3,2.6-0.8,3.7c-0.6,1.1-1.4,1.9-2.4,2.5c-1,0.6-2.2,0.9-3.6,0.9H4.9z M7.4,10.5v10.7h1.7
			c1.3,0,2.4-0.4,3.1-1.3c0.7-0.8,1.1-2.1,1.1-3.6v-0.8c0-1.6-0.3-2.8-1-3.7c-0.7-0.8-1.7-1.3-3-1.3H7.4z M30,16.7h-6.1v4.6H31v2.1
			h-9.7V8.5h9.6v2.1h-7v4.1H30V16.7z M38.5,21.2h6.7v2.1h-9.3V8.5h2.6V21.2z M58.6,10.5H54v12.7h-2.6V10.5h-4.6V8.5h11.8V10.5z
			 M70.5,19.8h-5.7l-1.2,3.4h-2.7l5.6-14.8h2.3l5.6,14.8h-2.7L70.5,19.8z M65.5,17.7h4.3l-2.1-6.1L65.5,17.7z"/>
	</g>
	<g id="mark" transform="translate(3.000000, 2.000000)">
		<g>
			<g id="Group">
				<polygon id="Shape" class="st3" points="6.5,8.1 6.3,8.8 6.3,28.5 6.5,28.7 15.5,23.3 				"/>
				<polygon id="Shape_1_" class="st4" points="6.5,8.1 -2.6,23.3 6.5,28.7 				"/>
				<polyline id="Shape_2_" class="st5" points="6.5,28.7 15.6,23.3 6.5,19.1 6.5,28.7 				"/>
				<polyline id="Shape_3_" class="st6" points="-2.6,23.3 6.5,28.7 6.5,19.1 				"/>
			</g>
			<path id="Oval" class="st7" d="M6.4,37.9c3.4,0,9.1-5.7,9.1-12.8c0,0-3,1.7-9.1,5.2C6.4,35.3,6.4,37.9,6.4,37.9z"/>
			<path id="Oval_1_" class="st4" d="M6.5,37.9c-3.4,0-9.1-5.7-9.1-12.8c0,0,3,1.7,9.1,5.2C6.5,35.3,6.5,37.9,6.5,37.9z"/>
		</g>
	</g>
</g>
</svg>
