<?xml version="1.0" encoding="utf-8"?>
<svg version="1.1" xmlns="http://www.w3.org/2000/svg" xmlns:xlink="http://www.w3.org/1999/xlink" x="0px" y="0px"
	 width="400" height="75" viewBox="0 0 400 75" style="enable-background:new 0 0 400 75;" xml:space="preserve">
<style type="text/css">
	.sc-st0{display:none;}
	.sc-st1{display:inline;fill:#5471F9;}
	.sc-st2{fill:#2B3442;}
	.sc-st3{fill:#026602;}
	.sc-st4{fill:#5AB45A;}
	.sc-st5{fill:#004600;}
	.sc-st6{fill:#076B07;}
	.sc-st7{fill:#0A6E0A;}
</style>
<g class="sc-st0">
	<path class="sc-st1" d="M0,112h187.9V17.9H0V112z"/>
</g>
<g>
	<g >
		<g id="sc-uberdelta" transform="translate(84.000000, 8.000000)">
			<path id="sc-UBERDELTA" class="sc-st2" d="M8.2,7.9v25.5c0,2.5-0.6,4.7-1.7,6.6c-1.1,1.9-2.6,3.3-4.6,4.3s-4.3,1.5-6.9,1.5
				c-3.9,0-7.1-1.1-9.4-3.2c-2.4-2.1-3.6-5.1-3.7-8.9V7.9h3.1v25.2c0,3.1,0.9,5.6,2.7,7.3S-8.1,43-5,43s5.5-0.9,7.3-2.6
				C4.1,38.8,5,36.2,5,33.2V7.9H8.2z M24.1,45.2V7.9h11c4,0,7,0.8,9.1,2.5s3.1,4.1,3.1,7.3c0,1.9-0.5,3.6-1.6,5s-2.5,2.4-4.3,3.1
				c2.2,0.5,3.9,1.5,5.2,3.2s2,3.6,2,5.7c0,3.3-1.1,5.9-3.2,7.7c-2.1,1.9-5.1,2.8-8.9,2.8H24.1z M27.3,27.4v15.3h9.5
				c2.7,0,4.8-0.7,6.4-2.1s2.4-3.3,2.4-5.7c0-2.3-0.8-4.1-2.3-5.5c-1.5-1.3-3.6-2-6.3-2C37,27.4,27.3,27.4,27.3,27.4z M27.3,24.7
				h8.6c2.6-0.1,4.7-0.7,6.1-1.9s2.2-2.9,2.2-5.2c0-2.4-0.7-4.2-2.2-5.3s-3.8-1.7-6.8-1.7h-7.9C27.3,10.6,27.3,24.7,27.3,24.7z
				 M84,27.4H66.6v15.2h20.1v2.7H63.4V7.9h23.1v2.7H66.6v14.1h17.5L84,27.4L84,27.4z M114.3,29.8h-10.8v15.5h-3.2V7.9h12.1
				c4,0,7.1,1,9.3,2.9s3.4,4.6,3.4,8.1c0,2.4-0.7,4.5-2.1,6.3s-3.3,3.1-5.6,3.8l9.3,15.9v0.3h-3.4L114.3,29.8z M103.5,27.1h9.7
				c2.6,0,4.8-0.8,6.4-2.3s2.4-3.5,2.4-5.8c0-2.6-0.8-4.7-2.5-6.1c-1.7-1.5-4-2.2-7-2.2h-8.9L103.5,27.1L103.5,27.1z M139.9,45.2
				V7.9h11c3.3,0,6.2,0.7,8.8,2.2s4.5,3.6,5.9,6.3s2.1,5.8,2.1,9.3v1.9c0,3.5-0.7,6.6-2.1,9.3s-3.4,4.7-6,6.2s-5.6,2.2-9,2.2h-10.7
				V45.2z M146.4,13.1V40h4.2c3.4,0,6-1.1,7.8-3.2c1.8-2.1,2.7-5.2,2.8-9.2v-2.1c0-4-0.9-7.1-2.6-9.3s-4.3-3.2-7.7-3.2h-4.5V13.1z
				 M203.1,28.7h-15.3v11.5h17.9v5.2h-24.4V7.9h24.2v5.2h-17.7v10.3h15.3V28.7z M224.6,40h16.9v5.2h-23.4V7.9h6.5V40z M275.4,13.1
				h-11.6v32.1h-6.4V13.1h-11.5V7.9h29.6v5.2H275.4z M305.2,36.5h-14.5l-3,8.7H281l14.1-37.3h5.8L315,45.2h-6.8L305.2,36.5z
				 M292.6,31.4h10.8L298,15.8L292.6,31.4z"/>
		</g>
		<g id="sc-mark" transform="translate(3.000000, 2.000000)">
			<g>
				<g>
					<polygon  class="sc-st3" points="20.9,-2 20.4,-0.3 20.4,49.2 20.9,49.8 43.8,36.2 					"/>
					<polygon  class="sc-st4" points="20.9,-2 -1.9,36.2 20.9,49.8 					"/>
					<polyline  class="sc-st5" points="20.9,49.8 43.8,36.2 20.9,25.8 20.9,49.8 					"/>
					<polyline  class="sc-st6" points="-1.9,36.2 20.9,49.8 20.9,25.8 					"/>
				</g>
				<path class="sc-st7" d="M20.8,72.9c8.5,0,22.9-14.3,22.9-32.3c0,0-7.6,4.4-22.9,13.2C20.8,66.5,20.8,72.9,20.8,72.9z"/>
				<path  class="sc-st4" d="M20.9,72.9C12.4,72.9-2,58.7-2,40.7c0,0,7.6,4.4,22.9,13.2C20.9,66.5,20.9,72.9,20.9,72.9z"/>
			</g>
		</g>
	</g>
</g>
</svg>
