<?xml version="1.0" encoding="UTF-8" standalone="no"?>
<svg width="1036px" height="248px" viewBox="0 0 1036 248" version="1.1" xmlns="http://www.w3.org/2000/svg" xmlns:xlink="http://www.w3.org/1999/xlink">
    <!-- Generator: Sketch 50.2 (55047) - http://www.bohemiancoding.com/sketch -->
    <title>Group 2</title>
    <desc>Created with Sketch.</desc>
    <defs></defs>
    <g id="Page-5" fill-rule="evenodd">
        <g id="Group-2" fill="#0058ee" stroke="#0058ee" stroke-width="2" >
            <g id="X" transform="translate(827.000000, 0.000000)" >
                <polygon id="Path" points="206.878173 1.21568627 29.7055838 246.784314 2.12182741 246.784314 179.294416 1.21568627"></polygon>
                <polygon id="Path" transform="translate(163.911168, 196.333333) scale(-1, 1) translate(-163.911168, -196.333333) " points="206.878173 165.330221 148.376127 246.784314 120.944162 246.784314 193.272352 145.882353"></polygon>
                <polygon id="Path" transform="translate(45.619289, 51.666667) scale(-1, 1) translate(-45.619289, -51.666667) " points="89.1167513 1.21568627 16.0542374 102.117647 2.12182741 83.1728562 61.388591 1.21568627"></polygon>
            </g>
            <g id="R">
                <path d="M42,121 L56.0236554,119.496801 L116,203 L90,203 L31.4000015,120.999086 C31.3103099,120.999493 27.8436427,120.999797 21,121 L21,203 L1,203 L1,103 L42,103 C66,103 81,86 81,62 C81,38 66,21 42,21 L1,21 L1,1 L42,1 C76,1 101,28 101,62 C101,95 76,121 42,121 Z" id="Combined-Shape"></path>
            </g>
            <g id="Skinny-E" transform="translate(158.000000, 102.000000)" >
                <polygon id="E" points="1 1 1 101 63 101 63 91 11 91 11 56 53 56 53 46 11 46 11 11 63 11 63 1"></polygon>
            </g>
            <g id="Skinny-N" transform="translate(262.000000, 102.000000)" >
                <polygon id="N" points="1 1 1 101 11 101 11 15 66 101 79 101 79 1 69 1 69 87 14 1"></polygon>
            </g>
            <g id="G" transform="translate(382.000000, 0.000000)" >
                <polygon id="Combined-Shape" points="85.920398 203 1 102 85.920398 1 133.004975 59.075 107 59.075 85.920398 33 27 102 85.920398 171 128 122 85.920398 122 85.920398 102 170 102"></polygon>
            </g>
            <g id="Skinny-E" transform="translate(594.000000, 102.000000)">
                <polygon id="E" points="1 1 1 101 63 101 63 91 11 91 11 56 53 56 53 46 11 46 11 11 63 11 63 1"></polygon>
            </g>
            <g id="Skinny-N" transform="translate(698.000000, 102.000000)"  >
                <polygon id="N" points="1 1 1 101 11 101 11 15 66 101 79 101 79 1 69 1 69 87 14 1"></polygon>
            </g>
            <polygon id="Rectangle" transform="translate(407.876336, 237.000000) rotate(180.000000) translate(-407.876336, -237.000000) " points="15.8426679 226 815.752672 226 815.752672 248 -3.41060513e-13 248"></polygon>
        </g>
    </g>
</svg>