<?xml version="1.0" encoding="UTF-8" standalone="no"?>
<svg width="517px" height="248px" viewBox="0 0 517 248" version="1.1" xmlns="http://www.w3.org/2000/svg" xmlns:xlink="http://www.w3.org/1999/xlink">
    <!-- Generator: Sketch 50.2 (55047) - http://www.bohemiancoding.com/sketch -->
    <title>Group</title>
    <desc>Created with Sketch.</desc>
    <defs></defs>
    <style>
    #rgx-logo:hover {
        fill: blue;
        stroke: #fff;
    }
    </style>
    <g id="rgx-logo" class="rgx-logo-svg" fill="#00ebe2" stroke="#00ebe2" stroke-width="2" fill-rule="evenodd">
        <g id="Group" >
            <g id="R">
                <path d="M42,121 L56.0236554,119.496801 L116,203 L90,203 L31.4000015,120.999086 C31.3103099,120.999493 27.8436427,120.999797 21,121 L21,203 L1,203 L1,103 L42,103 C66,103 81,86 81,62 C81,38 66,21 42,21 L1,21 L1,1 L42,1 C76,1 101,28 101,62 C101,95 76,121 42,121 Z" id="Combined-Shape"></path>
            </g>
            <g id="G" transform="translate(128.000000, 0.000000)">
                <polygon id="Combined-Shape" points="85.920398 203 1 102 85.920398 1 133.004975 59.075 107 59.075 85.920398 33 27 102 85.920398 171 128 122 85.920398 122 85.920398 102 170 102"></polygon>
            </g>
            <g id="X" transform="translate(308.000000, 0.000000)">
                <polygon id="Path" points="206.878173 1.21568627 29.7055838 246.784314 2.12182741 246.784314 179.294416 1.21568627"></polygon>
                <polygon id="Path" transform="translate(163.911168, 196.333333) scale(-1, 1) translate(-163.911168, -196.333333) " points="206.878173 165.330221 148.376127 246.784314 120.944162 246.784314 193.272352 145.882353"></polygon>
                <polygon id="Path" transform="translate(45.619289, 51.666667) scale(-1, 1) translate(-45.619289, -51.666667) " points="89.1167513 1.21568627 16.0542374 102.117647 2.12182741 83.1728562 61.388591 1.21568627"></polygon>
            </g>
            <polygon id="Rectangle" transform="translate(148.411022, 237.000000) rotate(180.000000) translate(-148.411022, -237.000000) " points="15.9120413 226 296.822045 226 296.822045 248 -2.84217094e-13 248"></polygon>
        </g>
    </g>
</svg>