<?xml version="1.0" encoding="UTF-8"?>
<svg width="533px" height="105px" viewBox="0 0 533 105" version="1.1" xmlns="http://www.w3.org/2000/svg" xmlns:xlink="http://www.w3.org/1999/xlink">
    <title>uberdelta-logo</title>
    <defs></defs>
    <g id="Page-1" stroke="none" stroke-width="1" fill="none" fill-rule="evenodd">
        <g id="uberdelta-logo">
            <g id="uberdelta-brand" transform="translate(84.000000, 8.000000)" fill="#2B3442">
                <path d="M40.5712891,15.234375 L40.5712891,49.2089844 C40.5485025,52.5586105 39.80795,55.475248 38.3496094,57.9589844 C36.8912687,60.4427208 34.8348115,62.3510676 32.1801758,63.684082 C29.5255401,65.0170965 26.4778818,65.6835938 23.0371094,65.6835938 C17.7961978,65.6835938 13.5978348,64.2537578 10.4418945,61.394043 C7.28595427,58.5343281 5.65104224,54.5752206 5.53710938,49.5166016 L5.53710938,15.234375 L9.70703125,15.234375 L9.70703125,48.9013672 C9.70703125,53.0940965 10.9033083,56.3468309 13.2958984,58.659668 C15.6884885,60.9725051 18.9355264,62.1289062 23.0371094,62.1289062 C27.1386924,62.1289062 30.3800337,60.9668085 32.7612305,58.6425781 C35.1424273,56.3183478 36.3330078,53.082703 36.3330078,48.9355469 L36.3330078,15.234375 L40.5712891,15.234375 Z M61.7949219,65 L61.7949219,15.234375 L76.4921875,15.234375 C81.8242454,15.234375 85.8688013,16.3338106 88.6259766,18.5327148 C91.3831518,20.7316191 92.7617188,23.9729604 92.7617188,28.2568359 C92.7617188,30.8317186 92.0610422,33.0704657 90.659668,34.9731445 C89.2582938,36.8758233 87.3385539,38.2373006 84.9003906,39.0576172 C87.7942853,39.6956412 90.1241774,41.1197806 91.8901367,43.3300781 C93.6560961,45.5403756 94.5390625,48.0924334 94.5390625,50.9863281 C94.5390625,55.3841366 93.1206197,58.8191608 90.2836914,61.2915039 C87.4467632,63.763847 83.4990487,65 78.4404297,65 L61.7949219,65 Z M65.9990234,41.0742188 L65.9990234,61.4453125 L78.6113281,61.4453125 C82.2116065,61.4453125 85.0655819,60.5281667 87.1733398,58.6938477 C89.2810978,56.8595286 90.3349609,54.3131673 90.3349609,51.0546875 C90.3349609,47.9785002 89.3266702,45.5460701 87.3100586,43.7573242 C85.2934469,41.9685783 82.5078303,41.0742188 78.953125,41.0742188 L65.9990234,41.0742188 Z M65.9990234,37.5537109 L77.4833984,37.5537109 C80.9925306,37.4853512 83.7097885,36.6593504 85.6352539,35.0756836 C87.5607193,33.4920168 88.5234375,31.184911 88.5234375,28.1542969 C88.5234375,24.9641768 87.5265399,22.6114985 85.5327148,21.0961914 C83.5388898,19.5808844 80.5254108,18.8232422 76.4921875,18.8232422 L65.9990234,18.8232422 L65.9990234,37.5537109 Z M141.670898,41.1425781 L118.394531,41.1425781 L118.394531,61.4453125 L145.157227,61.4453125 L145.157227,65 L114.19043,65 L114.19043,15.234375 L144.986328,15.234375 L144.986328,18.8232422 L118.394531,18.8232422 L118.394531,37.5878906 L141.670898,37.5878906 L141.670898,41.1425781 Z M182.103516,44.2871094 L167.645508,44.2871094 L167.645508,65 L163.407227,65 L163.407227,15.234375 L179.574219,15.234375 C184.88349,15.234375 189.030584,16.521797 192.015625,19.0966797 C195.000666,21.6715624 196.493164,25.2717868 196.493164,29.8974609 C196.493164,33.0875811 195.558929,35.9016805 193.69043,38.3398438 C191.821931,40.778007 189.315445,42.464188 186.170898,43.3984375 L198.612305,64.5556641 L198.612305,65 L194.134766,65 L182.103516,44.2871094 Z M167.645508,40.6982422 L180.53125,40.6982422 C184.063169,40.6982422 186.900054,39.695648 189.041992,37.6904297 C191.18393,35.6852113 192.254883,33.0875811 192.254883,29.8974609 C192.254883,26.3883288 191.138358,23.6653743 188.905273,21.7285156 C186.672189,19.791657 183.539083,18.8232422 179.505859,18.8232422 L167.645508,18.8232422 L167.645508,40.6982422 Z M216.212891,65 L216.212891,15.234375 L230.910156,15.234375 C235.307965,15.234375 239.210107,16.2141829 242.616699,18.1738281 C246.023292,20.1334733 248.660798,22.9133935 250.529297,26.5136719 C252.397796,30.1139503 253.332031,34.238258 253.332031,38.8867188 L253.332031,41.3818359 C253.332031,46.0986564 252.392099,50.2457503 250.512207,53.8232422 C248.632315,57.400734 245.954933,60.1578679 242.47998,62.0947266 C239.005028,64.0315852 235.023134,65 230.53418,65 L216.212891,65 Z M224.860352,22.2070312 L224.860352,58.0957031 L230.5,58.0957031 C235.034528,58.0957031 238.515125,56.6772603 240.941895,53.840332 C243.368664,51.0034038 244.604817,46.9303651 244.650391,41.6210938 L244.650391,38.8525391 C244.650391,33.4521214 243.4769,29.3278137 241.129883,26.4794922 C238.782866,23.6311707 235.376324,22.2070312 230.910156,22.2070312 L224.860352,22.2070312 Z M300.532227,42.7832031 L280.092773,42.7832031 L280.092773,58.0957031 L303.984375,58.0957031 L303.984375,65 L271.445313,65 L271.445313,15.234375 L303.745117,15.234375 L303.745117,22.2070312 L280.092773,22.2070312 L280.092773,35.9472656 L300.532227,35.9472656 L300.532227,42.7832031 Z M329.172852,58.0957031 L351.765625,58.0957031 L351.765625,65 L320.525391,65 L320.525391,15.234375 L329.172852,15.234375 L329.172852,58.0957031 Z M396.84668,22.2070312 L381.329102,22.2070312 L381.329102,65 L372.75,65 L372.75,22.2070312 L357.369141,22.2070312 L357.369141,15.234375 L396.84668,15.234375 L396.84668,22.2070312 Z M436.629883,53.4130859 L417.352539,53.4130859 L413.319336,65 L404.330078,65 L423.128906,15.234375 L430.887695,15.234375 L449.720703,65 L440.697266,65 L436.629883,53.4130859 Z M419.779297,46.4404297 L434.203125,46.4404297 L426.991211,25.7958984 L419.779297,46.4404297 Z" id="UBERDELTA"></path>
            </g>
            <g id="UberDelta-Mark" transform="translate(3.000000, 2.000000)">
                <g>
                    <g id="Group" fill-rule="nonzero">
                        <polygon id="Shape" fill="#026602" points="30.4701954 0 29.8045603 2.27558662 29.8045603 68.2975537 30.4701954 68.9655517 60.9612541 50.8517224"></polygon>
                        <polygon id="Shape" fill="#5AB45A" points="30.4910586 0 0 50.8517224 30.4910586 68.9665502"></polygon>
                        <polyline id="Shape" fill="#004600" points="30.5 68.9885172 60.9900651 50.8736895 30.5 36.9445831 30.5 68.9885172"></polyline>
                        <polyline id="Shape" fill="#076B07" points="0 50.874688 30.4900651 68.9895157 30.4900651 36.9445831"></polyline>
                    </g>
                    <path d="M67.1329309,93.6326978 C67.0671329,82.2771057 48.0133724,63.0453223 24.1020634,63.0453223 C24.0753874,63.0453223 29.938172,73.2411141 41.6904173,93.6326978 C58.652093,93.6326978 67.1329309,93.6326978 67.1329309,93.6326978 Z" id="Oval" fill="#0A6E0A" transform="translate(45.617497, 78.339010) rotate(-270.000000) translate(-45.617497, -78.339010) "></path>
                    <path d="M36.7322795,93.6326978 C36.6664815,82.2771057 17.6127209,63.0453223 -6.29858803,63.0453223 C-6.32526411,63.0453223 -0.462479489,73.2411141 11.2897658,93.6326978 C28.2514416,93.6326978 36.7322795,93.6326978 36.7322795,93.6326978 Z" id="Oval" fill="#5AB45A" transform="translate(15.216846, 78.339010) scale(-1, 1) rotate(-270.000000) translate(-15.216846, -78.339010) "></path>
                </g>
            </g>
        </g>
    </g>
</svg>