<?xml version="1.0" encoding="utf-8"?>
<!-- Generator: Adobe Illustrator 22.1.0, SVG Export Plug-In . SVG Version: 6.00 Build 0)  -->
<svg version="1.1" id="Layer_1" xmlns="http://www.w3.org/2000/svg" xmlns:xlink="http://www.w3.org/1999/xlink" x="0px" y="0px"
	 viewBox="0 0 48 48" style="enable-background:new 0 0 48 48;" xml:space="preserve">
<style type="text/css">
	.st0{fill:none;stroke:#28CA41;stroke-width:1.5;stroke-miterlimit:10;}
</style>
<path class="st0" d="M2.2,19.9c0,0,6.1-8.1,9.7-6.3c3.6,1.8-0.8,4.8,2.7,6.4c3.5,1.6,8.8-0.4,7.6-5c-1.2-4.6-3.2-1.3-4.8-3.8
	c-1.6-2.5,7.9-7.9,7.9-7.9s5.8,11.5,7.5,8.5c2-3.7,5.5-7.4,9.2-1.8c0,0,3.1,4.2,0.4,5.9c-2.7,1.7-5,0.8-6.1,2.7
	c-1,1.9,6.5,7.1,6.5,7.1s-5.1,8.3-8.5,6.1c-3.4-2.2,0.6-5.8-4.5-6.9c-2.2-0.4-6,0.9-6.6,4.1c-0.2,4.7,2.8,3.5,4.8,6
	c2.1,2.5-7.8,7.8-7.8,7.8s-2.7-6.8-6.6-8.1c-3.8-1.3-1.6,3.7-5,4.3c-3.5,0.7-8.3-4.1-6-8.3c2.4-4.1,5.7-0.1,6-3.4
	C8.9,24.1,2.2,19.9,2.2,19.9z"/>
</svg>
