<?xml version="1.0" encoding="utf-8"?>
<!-- Generator: Adobe Illustrator 22.1.0, SVG Export Plug-In . SVG Version: 6.00 Build 0)  -->
<svg version="1.1" id="Layer_1" xmlns="http://www.w3.org/2000/svg" xmlns:xlink="http://www.w3.org/1999/xlink" x="0px" y="0px"
	 viewBox="0 0 48 48" style="enable-background:new 0 0 48 48;" xml:space="preserve">
<style type="text/css">
	.st0{fill:#28CA41;}
</style>
<path d="M6.6,31.2h12.5c0.9,0,1.6-0.7,1.6-1.6v-3.1c0-0.9-0.7-1.6-1.6-1.6h-8.6c-0.4,0-0.8,0.4-0.8,0.8s0.4,0.8,0.8,0.8h8.6v3.1H6.6
	v-3.1h0.8c0.4,0,0.8-0.4,0.8-0.8V13.2c0-0.4-0.4-0.8-0.8-0.8s-0.8,0.4-0.8,0.8v11.8c-0.9,0-1.6,0.7-1.6,1.6v3.1
	C5,30.5,5.7,31.2,6.6,31.2z"/>
<path class="st0" d="M16,33.4l-0.8,3.1c-0.1,0.4,0.2,0.8,0.6,1c0.1,0,0.1,0,0.2,0c0.4,0,0.7-0.2,0.8-0.6l0.8-3.1
	c0.1-0.4-0.2-0.8-0.6-1C16.5,32.7,16.1,33,16,33.4z"/>
<path d="M6.6,10.8h8.6c0.4,0,0.8-0.4,0.8-0.8c0-0.4-0.4-0.8-0.8-0.8H6.6V6.1h12.5v3.1h-0.8c-0.4,0-0.8,0.4-0.8,0.8v12.5
	c0,0.4,0.4,0.8,0.8,0.8c0.4,0,0.8-0.4,0.8-0.8V10.8c0.9,0,1.6-0.7,1.6-1.6V6.1c0-0.9-0.7-1.6-1.6-1.6H6.6C5.7,4.6,5,5.3,5,6.1v3.1
	C5,10.1,5.7,10.8,6.6,10.8z"/>
<path d="M21.5,15.5h18.8c0.4,0,0.8-0.4,0.8-0.8c0-0.4-0.4-0.8-0.8-0.8H21.5c-0.4,0-0.8,0.4-0.8,0.8C20.7,15.2,21,15.5,21.5,15.5z"/>
<path class="st0" d="M24,33l-3.1,3.1c-0.3,0.3-0.3,0.8,0,1.1c0.2,0.2,0.4,0.2,0.6,0.2c0.2,0,0.4-0.1,0.6-0.2l3.1-3.1
	c0.3-0.3,0.3-0.8,0-1.1C24.8,32.7,24.3,32.7,24,33z"/>
<path class="st0" d="M8.7,32.8c-0.4,0.1-0.7,0.5-0.6,1l0.8,3.1c0.1,0.4,0.4,0.6,0.8,0.6c0.1,0,0.1,0,0.2,0c0.4-0.1,0.7-0.5,0.6-1
	l-0.8-3.1C9.6,33,9.1,32.7,8.7,32.8z"/>
<path d="M45.8,12.4h-1.6c-0.9,0-1.6,0.7-1.6,1.6v3.9c0,0.4,0.4,0.8,0.8,0.8s0.8-0.4,0.8-0.8V14h1.6v7.8h-1.6V21
	c0-0.4-0.4-0.8-0.8-0.8h-22c-0.4,0-0.8,0.4-0.8,0.8c0,0.4,0.4,0.8,0.8,0.8h21.2c0,0.9,0.7,1.6,1.6,1.6h1.6c0.9,0,1.6-0.7,1.6-1.6V14
	C47.3,13.1,46.6,12.4,45.8,12.4z"/>
<path d="M23,39.1H2.6c-1.3,0-2.4,1.1-2.4,2.4v3.1c0,0.4,0.4,0.8,0.8,0.8h23.5c0.4,0,0.8-0.4,0.8-0.8v-3.1
	C25.4,40.1,24.3,39.1,23,39.1z M23.8,43.8h-22v-2.4c0-0.4,0.4-0.8,0.8-0.8H23c0.4,0,0.8,0.4,0.8,0.8V43.8z"/>
<path class="st0" d="M3.6,37.3c0.2,0.2,0.4,0.2,0.6,0.2c0.2,0,0.4-0.1,0.6-0.2c0.3-0.3,0.3-0.8,0-1.1L1.6,33c-0.3-0.3-0.8-0.3-1.1,0
	c-0.3,0.3-0.3,0.8,0,1.1L3.6,37.3z"/>
</svg>
